<?xml version="1.0" encoding="UTF-8"?><svg id="a" xmlns="http://www.w3.org/2000/svg" viewBox="0 0 1080 1080"><defs><style>.b{fill:#fff;}.c{fill:#4a4e69;}.d{fill:#f2e9e4;}.e{fill:#22223b;}.f{stroke:#0b0b19;stroke-linecap:round;stroke-linejoin:round;stroke-width:16px;}.f,.g{fill:#0b0b19;}</style></defs><rect class="e" width="1080" height="1080"/><polygon class="f" points="249.75 457.88 299.01 350.06 781.9 350.06 832.81 457.88 664.52 540.08 297.08 503.79 249.75 457.88"/><g><g><path class="g" d="M352.48,749.21c-2.27,0-4.43-.96-5.95-2.65-.71-.79-1.24-1.69-1.59-2.67-.36-.54-.64-1.12-.86-1.72-.35-.54-.64-1.12-.86-1.72-.36-.54-.64-1.12-.86-1.72-.35-.54-.64-1.12-.86-1.72-.35-.54-.64-1.12-.86-1.72-.36-.54-.64-1.12-.86-1.72-.35-.54-.64-1.12-.85-1.72-.36-.54-.64-1.12-.86-1.72-.35-.54-.64-1.11-.85-1.72-.31-.47-.57-.97-.77-1.49h-.59c-2.28,0-4.46-.98-5.98-2.68-.69-.77-1.21-1.66-1.55-2.62-.38-.56-.69-1.17-.92-1.81-.2-.3-.39-.61-.55-.93l-2.94,23.32c-.5,4-3.91,7-7.94,7h-51.84c-2.34,0-4.55-1.02-6.07-2.79-.41-.48-.76-1-1.04-1.54-.05-.06-.1-.12-.16-.18-.41-.48-.76-.99-1.04-1.54-.05-.06-.11-.12-.16-.18-.41-.48-.76-.99-1.04-1.54-.05-.06-.1-.12-.16-.18-.41-.48-.76-1-1.04-1.54-.05-.06-.1-.12-.15-.18-.41-.48-.76-1-1.04-1.54-.05-.06-.1-.12-.16-.18-.41-.48-.76-1-1.04-1.54-.05-.06-.1-.12-.16-.18-.41-.48-.76-1-1.04-1.54-.05-.06-.1-.12-.16-.18-.41-.48-.76-1-1.04-1.54-.05-.06-.1-.12-.16-.18-.41-.48-.76-1-1.04-1.54-.05-.06-.1-.12-.16-.18-.41-.48-.76-.99-1.04-1.54-.05-.06-.1-.12-.16-.18-.41-.48-.76-.99-1.04-1.54-.05-.06-.1-.12-.16-.18-.27-.31-.5-.64-.72-.98-1.38-.46-2.63-1.29-3.59-2.42-.4-.48-.75-.99-1.02-1.54-.08-.09-.16-.18-.24-.27-.4-.48-.75-.99-1.02-1.54-.08-.09-.16-.17-.24-.27-.4-.48-.74-.99-1.02-1.54-.08-.09-.16-.18-.24-.27-.4-.48-.75-.99-1.02-1.54-.08-.09-.16-.17-.24-.27-.4-.48-.74-.99-1.02-1.54-.08-.09-.16-.18-.24-.27-.4-.48-.75-.99-1.02-1.54-.08-.09-.16-.17-.24-.27-.4-.48-.74-.99-1.02-1.54-.08-.09-.16-.18-.24-.27-.4-.48-.75-.99-1.02-1.54-.08-.09-.16-.17-.24-.27-.4-.48-.74-.99-1.02-1.54-.08-.09-.16-.18-.24-.27-.32-.37-.6-.77-.84-1.19l-6.57,35.99c-.69,3.8-4.01,6.56-7.87,6.56h-53.33c-2.41,0-4.7-1.09-6.22-2.96-.14-.17-.27-.35-.39-.53-.44-.35-.84-.75-1.2-1.19-.14-.17-.27-.35-.39-.53-.44-.35-.84-.75-1.2-1.19-.14-.17-.27-.35-.39-.53-.44-.35-.84-.75-1.2-1.19-.14-.17-.27-.35-.39-.53-.44-.35-.84-.75-1.2-1.2-.14-.17-.27-.35-.39-.52-.44-.35-.84-.75-1.2-1.2-.14-.17-.27-.35-.39-.52-.44-.35-.84-.75-1.2-1.2-.14-.17-.27-.35-.39-.52-.44-.35-.84-.75-1.2-1.19-.14-.17-.27-.35-.39-.53-.44-.35-.84-.75-1.2-1.19-.14-.17-.27-.35-.39-.53-.44-.35-.84-.75-1.2-1.19-.14-.17-.27-.35-.39-.52-.44-.35-.84-.75-1.2-1.2-.14-.17-.27-.35-.39-.52-.44-.35-.84-.75-1.2-1.2-.14-.17-.27-.35-.39-.53-.44-.35-.84-.75-1.2-1.19-.14-.17-.27-.35-.39-.52-.44-.35-.84-.75-1.2-1.2-.14-.17-.27-.35-.39-.52-.44-.35-.84-.75-1.2-1.2-.14-.17-.27-.35-.39-.52-.44-.35-.84-.75-1.2-1.19-.14-.17-.27-.35-.39-.53-.44-.35-.84-.75-1.2-1.19-.14-.17-.27-.35-.39-.53-.44-.35-.84-.75-1.2-1.19-.14-.17-.27-.35-.39-.52-.44-.35-.84-.75-1.2-1.2-.14-.17-.27-.35-.39-.52-.44-.35-.84-.75-1.2-1.2-.14-.17-.27-.35-.39-.53-.44-.35-.84-.75-1.2-1.19-.14-.17-.27-.35-.39-.52-.44-.35-.84-.75-1.2-1.19-.14-.17-.27-.35-.39-.53-.44-.35-.84-.75-1.2-1.19-.14-.17-.27-.35-.39-.53-.44-.35-.84-.75-1.2-1.19-.14-.17-.27-.35-.39-.53-.44-.35-.84-.75-1.2-1.19-.14-.17-.27-.35-.39-.52-.44-.35-.84-.75-1.2-1.2-.14-.17-.27-.35-.39-.52-.44-.35-.84-.75-1.2-1.2-.14-.17-.27-.35-.39-.52-.44-.35-.84-.75-1.2-1.2-.14-.17-.27-.35-.39-.53-.44-.35-.84-.75-1.2-1.19-.14-.17-.27-.35-.39-.52-.44-.35-.84-.75-1.2-1.19-.14-.17-.27-.35-.39-.53-.44-.35-.84-.75-1.2-1.19-.14-.17-.27-.35-.39-.53-.44-.35-.84-.75-1.2-1.19-.14-.17-.27-.35-.39-.53-.44-.35-.84-.75-1.2-1.19-.14-.17-.27-.35-.39-.52-.44-.35-.84-.75-1.2-1.2-.14-.17-.27-.35-.39-.52-.44-.35-.84-.75-1.2-1.2-.14-.17-.27-.35-.39-.52-.44-.35-.84-.75-1.2-1.2-.14-.17-.27-.35-.39-.53-.44-.35-.84-.75-1.2-1.19-.14-.17-.27-.35-.39-.53-.44-.35-.84-.75-1.2-1.19-.14-.17-.27-.35-.39-.53-.44-.35-.84-.75-1.2-1.19-.14-.17-.27-.35-.39-.52-.44-.35-.84-.75-1.2-1.2-.14-.17-.27-.35-.39-.53-.44-.35-.84-.75-1.2-1.19-.14-.17-.27-.35-.39-.52-.44-.35-.84-.75-1.2-1.2-1.52-1.87-2.11-4.33-1.61-6.69l41-193.46c.78-3.7,4.05-6.34,7.83-6.34h57.34c2.37,0,4.62,1.05,6.14,2.87,.64,.77,1.13,1.65,1.44,2.58,.56,.72,.98,1.52,1.26,2.36,.56,.72,.98,1.52,1.26,2.36,.56,.72,.98,1.52,1.27,2.36,.56,.72,.98,1.52,1.26,2.36,.56,.72,.98,1.52,1.26,2.36,.56,.72,.98,1.52,1.26,2.36,.51,.65,.91,1.38,1.19,2.14h.76c2.36,0,4.59,1.04,6.11,2.84,.66,.78,1.15,1.67,1.47,2.62,.53,.7,.93,1.47,1.21,2.29,.53,.7,.93,1.47,1.21,2.29,.53,.7,.93,1.47,1.21,2.29,.53,.7,.94,1.47,1.21,2.29,.53,.7,.93,1.47,1.21,2.29,.53,.7,.93,1.47,1.21,2.29,.5,.65,.88,1.37,1.15,2.13h3.05c.54,0,1.07,.05,1.59,.16l5.64-36.45c.6-3.9,3.96-6.78,7.91-6.78h54.43c2.3,0,4.48,.99,6,2.71,.92,1.04,1.54,2.29,1.82,3.61,.43,.73,.74,1.53,.92,2.36,.43,.73,.74,1.53,.92,2.36,.43,.73,.74,1.53,.92,2.36,.43,.73,.74,1.53,.92,2.36,.43,.73,.74,1.53,.91,2.36,.43,.74,.74,1.53,.92,2.36,.27,.46,.49,.94,.66,1.44,.53-.11,1.07-.17,1.63-.17h13.19l1.55-14.59c.43-4.07,3.86-7.16,7.96-7.16h121.62c2.18,0,4.27,.89,5.77,2.46,1.41,1.47,2.2,3.41,2.23,5.44,.24,.76,.38,1.55,.39,2.36,.24,.76,.38,1.55,.39,2.36,.24,.76,.38,1.55,.39,2.36,.24,.76,.38,1.55,.39,2.36,.24,.76,.38,1.55,.39,2.36,.21,.66,.34,1.35,.38,2.05h10.3c2.17,0,4.24,.88,5.74,2.43,1.46,1.51,2.27,3.53,2.26,5.62,.21,.74,.32,1.51,.32,2.29,.21,.74,.32,1.51,.32,2.29,.21,.74,.32,1.51,.32,2.29,.21,.74,.32,1.51,.32,2.29,.21,.74,.32,1.51,.32,2.29,.21,.74,.32,1.51,.32,2.29,.21,.74,.32,1.51,.32,2.29,.21,.74,.32,1.51,.32,2.29,.21,.74,.32,1.51,.32,2.29,.21,.74,.32,1.51,.32,2.29,.21,.74,.32,1.51,.32,2.29,.21,.74,.32,1.51,.32,2.29,.21,.74,.32,1.51,.32,2.29,.21,.74,.32,1.51,.32,2.29,.21,.74,.32,1.51,.32,2.29,.21,.74,.32,1.51,.32,2.29,.21,.74,.32,1.51,.32,2.29,.21,.74,.32,1.51,.32,2.29,.21,.74,.32,1.51,.32,2.29,.21,.74,.32,1.51,.32,2.29,.21,.74,.32,1.51,.32,2.29,.21,.74,.32,1.51,.32,2.29,.21,.74,.32,1.51,.32,2.29,.21,.74,.32,1.51,.32,2.29,.21,.74,.32,1.51,.32,2.29,.21,.74,.32,1.51,.32,2.29,.21,.74,.32,1.51,.32,2.29,.21,.74,.32,1.51,.32,2.29,.21,.74,.32,1.51,.32,2.29,.21,.74,.32,1.51,.32,2.29,.21,.74,.32,1.51,.32,2.29,.21,.74,.32,1.51,.32,2.29,.21,.74,.32,1.51,.32,2.29,.21,.74,.32,1.51,.32,2.29,.21,.74,.32,1.51,.32,2.29,.21,.74,.32,1.51,.32,2.29,.21,.74,.32,1.51,.32,2.29,.21,.74,.32,1.51,.32,2.29,.21,.74,.32,1.51,.32,2.29,.21,.74,.32,1.51,.32,2.29,.23,.8,.34,1.64,.31,2.48l-3.9,126.16c-.13,4.32-3.67,7.75-8,7.75h-12.35l-.62,14.62c-.18,4.28-3.71,7.66-7.99,7.66h-115.84Z"/><path class="g" d="M459.5,477.23l-.1,2.36h.49l-.1,2.36h.49l-.1,2.36h.49l-.1,2.36h.49l-.1,2.36h.49l-.1,2.36h.49l-.1,2.36h.49l-.1,2.36h.49l-.1,2.36h.49l-.02,.51h17.15l-.07,2.29h.39l-.07,2.29h.39l-.07,2.29h.39l-.07,2.29h.39l-.07,2.29h.39l-.07,2.29h.39l-.07,2.29h.39l-.07,2.29h.39l-.07,2.29h.39l-.07,2.29h.39l-.07,2.29h.39l-.07,2.29h.39l-.07,2.29h.39l-.07,2.29h.39l-.07,2.29h.39l-.07,2.29h.39l-.07,2.29h.39l-.07,2.29h.39l-.07,2.29h.39l-.07,2.29h.39l-.07,2.29h.39l-.07,2.29h.39l-.07,2.29h.39l-.07,2.29h.39l-.07,2.29h.39l-.07,2.29h.39l-.07,2.29h.39l-.07,2.29h.39l-.07,2.29h.39l-.07,2.29h.39l-.07,2.29h.39l-.07,2.29h.39l-.07,2.29h.39l-.07,2.29h.39l-.07,2.29h.39l-.07,2.29h.39l-.07,2.29h.39l-.07,2.29h.39l-.07,2.29h.39l-.07,2.29h.39l-.07,2.29h.39l-3.9,126.16h-20.02l-.94,22.29h-115.84l.18-1.72h-1.04l.18-1.72h-1.04l.18-1.72h-1.04l.18-1.72h-1.04l.18-1.72h-1.04l.18-1.72h-1.04l.18-1.72h-1.04l.18-1.72h-1.04l.18-1.72h-1.04l.18-1.72h-1.04l.18-1.72h-1.04l.18-1.72h-1.04l.17-1.65h-6.5l.21-1.81h-1.13l.21-1.81h-1.13l.21-1.81h-1.13l.21-1.81h-1.13l.21-1.81h-1.13l.21-1.81h-1.13l.21-1.81h-1.13l.21-1.81h-1.13l.21-1.8h-1.13l.21-1.81h-1.13l.21-1.81h-1.13l.21-1.81h-1.13l.21-1.81h-1.13l.21-1.81h-1.13l.21-1.81h-.98l-6.23,49.36h-51.84l.27-1.72h-1.46l.27-1.72h-1.46l.27-1.72h-1.46l.27-1.72h-1.46l.27-1.72h-1.46l.27-1.72h-1.46l.27-1.72h-1.46l.27-1.72h-1.46l.27-1.72h-1.46l.27-1.72h-1.46l.27-1.72h-1.46l.27-1.72h-1.46l.25-1.65h-3.34l.3-1.81h-1.56l.3-1.81h-1.56l.3-1.81h-1.56l.3-1.81h-1.56l.3-1.81h-1.56l.3-1.81h-1.56l.3-1.81h-1.56l.3-1.81h-1.56l.3-1.8h-1.56l.3-1.81h-1.56l.3-1.81h-1.56l.16-.99h-3.45l.34-1.88h-1.66l.34-1.88h-1.66l.34-1.88h-1.66l.34-1.88h-1.66l.34-1.88h-1.02l-9.59,52.56h-53.33l.36-1.72h-1.95l.36-1.72h-1.95l.36-1.72h-1.95l.36-1.72h-1.95l.36-1.72h-1.95l.36-1.72h-1.95l.36-1.72h-1.95l.36-1.72h-1.95l.36-1.72h-1.95l.36-1.72h-1.95l.36-1.72h-1.95l.36-1.72h-1.95l.36-1.72h-1.95l.36-1.72h-1.95l.36-1.72h-1.95l.36-1.72h-1.95l.36-1.72h-1.95l.36-1.72h-1.95l.36-1.72h-1.95l.36-1.72h-1.95l.36-1.72h-1.95l.36-1.72h-1.95l.36-1.72h-1.95l.36-1.72h-1.95l.36-1.72h-1.95l.36-1.72h-1.95l.36-1.72h-1.95l.36-1.72h-1.95l.36-1.72h-1.95l.36-1.72h-1.95l.36-1.72h-1.95l.36-1.72h-1.95l.36-1.72h-1.95l.36-1.72h-1.95l.36-1.72h-1.95l.36-1.72h-1.95l.36-1.72h-1.95l.36-1.72h-1.95l.36-1.72h-1.95l.36-1.72h-1.95l.36-1.72h-1.95l41-193.46h57.34l-.43,2.36h1.69l-.43,2.36h1.69l-.43,2.36h1.69l-.43,2.36h1.69l-.43,2.36h1.69l-.43,2.36h1.69l-.43,2.36h1.69l-.43,2.36h1.69l-.43,2.36h1.69l-.09,.51h5.83l-.39,2.29h1.6l-.39,2.29h1.6l-.39,2.29h1.6l-.39,2.29h1.6l-.39,2.29h1.6l-.39,2.29h1.6l-.39,2.29h1.6l-.39,2.29h1.6l-.39,2.29h1.6l-.12,.73h8.29l-.35,2.22h1.5l-.35,2.22h1.5l-.35,2.22h1.5l-.35,2.22h1.5l-.35,2.22h1.5l-.35,2.22h1.04l8.73-56.36h54.43l-.3,2.36h1.21l-.3,2.36h1.21l-.3,2.36h1.21l-.3,2.36h1.21l-.3,2.36h1.21l-.3,2.36h1.21l-.3,2.36h1.21l-.3,2.36h1.21l-.3,2.36h1.21l-.3,2.36h1.21l-.3,2.36h1.21l-.3,2.36h1.21l-.3,2.36h1.21l-.3,2.36h1.21l-.3,2.36h1.21l-.3,2.36h.31l1.87-16h20.39l2.31-21.75h121.62m-62.63,139.43h18.78l.06-1.01h-18.75l-.09,1.01m96.3-23.9h0m-33.67-131.53h-121.62c-8.18,0-15.05,6.17-15.91,14.31l-.79,7.44h-2.21c-.12-.3-.26-.6-.4-.9-.24-.81-.55-1.6-.92-2.36-.24-.81-.55-1.6-.92-2.36-.24-.81-.55-1.6-.91-2.36-.24-.81-.55-1.6-.92-2.36-.66-2.19-1.78-4.24-3.33-5.99-3.04-3.44-7.41-5.42-12-5.42h-54.43c-7.89,0-14.6,5.75-15.81,13.55l-2.96,19.11c-.21-.41-.45-.82-.7-1.21-.62-1.44-1.45-2.79-2.48-4.01-2.06-2.44-4.77-4.18-7.77-5.05-.18-.32-.36-.63-.56-.94-.35-.82-.77-1.6-1.26-2.36-.35-.82-.78-1.61-1.26-2.36-.35-.82-.78-1.61-1.26-2.36-.35-.82-.77-1.6-1.26-2.36-.35-.82-.78-1.61-1.26-2.36-.6-1.39-1.41-2.71-2.4-3.9-3.04-3.64-7.54-5.75-12.28-5.75h-57.34c-7.56,0-14.09,5.29-15.65,12.68l-41,193.46c-1,4.72,.18,9.64,3.22,13.39,.47,.58,.97,1.12,1.51,1.62,.03,.03,.05,.07,.08,.1,.47,.58,.97,1.12,1.51,1.62,.03,.03,.05,.07,.08,.1,.47,.58,.97,1.12,1.51,1.62,.03,.03,.05,.07,.08,.1,.47,.58,.97,1.12,1.51,1.62,.03,.03,.05,.07,.08,.1,.47,.58,.97,1.12,1.51,1.62,.03,.03,.05,.07,.08,.1,.47,.58,.97,1.12,1.51,1.62,.03,.03,.05,.07,.08,.1,.47,.58,.97,1.12,1.51,1.62,.03,.03,.05,.07,.08,.1,.47,.58,.97,1.12,1.51,1.62,.03,.03,.05,.07,.08,.1,.47,.58,.97,1.12,1.51,1.62,.03,.03,.05,.07,.08,.1,.47,.58,.97,1.12,1.51,1.62,.03,.03,.05,.07,.08,.1,.47,.58,.97,1.12,1.51,1.62,.03,.03,.05,.07,.08,.1,.47,.58,.97,1.12,1.51,1.62,.03,.03,.05,.07,.08,.1,.47,.58,.97,1.12,1.51,1.62,.03,.03,.05,.07,.08,.1,.47,.58,.97,1.12,1.51,1.62,.03,.03,.05,.07,.08,.1,.47,.58,.97,1.12,1.51,1.62,.03,.03,.05,.07,.08,.1,.47,.58,.97,1.12,1.51,1.62,.03,.03,.05,.07,.08,.1,.47,.58,.97,1.12,1.51,1.62,.03,.03,.05,.07,.08,.1,.47,.58,.97,1.12,1.51,1.62,.03,.03,.05,.07,.08,.1,.47,.58,.97,1.12,1.51,1.62,.03,.03,.05,.07,.08,.1,.47,.58,.97,1.12,1.51,1.62,.03,.03,.05,.07,.08,.1,.47,.58,.97,1.12,1.51,1.62,.03,.03,.05,.07,.08,.1,.47,.58,.97,1.12,1.51,1.62,.03,.03,.05,.07,.08,.1,.47,.58,.97,1.12,1.51,1.62,.03,.03,.05,.07,.08,.1,.47,.58,.97,1.12,1.51,1.62,.03,.03,.05,.07,.08,.1,.47,.58,.97,1.12,1.51,1.62,.03,.03,.05,.07,.08,.1,.47,.58,.97,1.12,1.51,1.62,.03,.03,.05,.07,.08,.1,.47,.58,.97,1.12,1.51,1.62,.03,.03,.05,.07,.08,.1,.47,.58,.97,1.12,1.51,1.62,.03,.03,.05,.07,.08,.1,.47,.58,.97,1.12,1.51,1.62,.03,.03,.05,.07,.08,.1,.47,.58,.97,1.12,1.51,1.62,.03,.03,.05,.07,.08,.1,.47,.58,.97,1.12,1.51,1.62,.03,.03,.05,.07,.08,.1,.47,.58,.97,1.12,1.51,1.62,.03,.03,.05,.07,.08,.1,.47,.58,.97,1.12,1.51,1.62,.03,.03,.05,.07,.08,.1,.47,.58,.97,1.12,1.51,1.62,.03,.03,.05,.07,.08,.1,.47,.58,.97,1.12,1.51,1.62,.03,.03,.05,.07,.08,.1,.47,.58,.97,1.12,1.51,1.62,.03,.03,.05,.07,.08,.1,.47,.58,.97,1.12,1.51,1.62,.03,.03,.05,.07,.08,.1,.47,.58,.97,1.12,1.51,1.62,.03,.03,.05,.07,.08,.1,.47,.58,.97,1.12,1.51,1.62,.03,.03,.05,.07,.08,.1,.47,.58,.97,1.12,1.51,1.62,.03,.03,.05,.07,.08,.1,.47,.58,.97,1.12,1.51,1.62,.03,.03,.05,.07,.08,.1,3.04,3.75,7.61,5.93,12.43,5.93h53.33c7.73,0,14.35-5.52,15.74-13.13l3.12-17.1c.05,.06,.09,.12,.14,.18,.44,.74,.95,1.44,1.51,2.11,1.24,1.46,2.72,2.67,4.35,3.59,.25,.38,.52,.75,.81,1.11,.36,.6,.76,1.17,1.19,1.72,.36,.6,.76,1.17,1.19,1.72,.36,.6,.76,1.17,1.19,1.72,.36,.6,.76,1.17,1.19,1.72,.36,.6,.76,1.17,1.19,1.72,.36,.6,.76,1.17,1.19,1.72,.36,.6,.76,1.17,1.19,1.72,.36,.6,.76,1.17,1.19,1.72,.36,.6,.76,1.17,1.19,1.72,.46,.76,.98,1.49,1.56,2.17,3.04,3.55,7.48,5.59,12.15,5.59h51.84c8.06,0,14.86-6,15.87-14l.76-6.02c.25,.57,.52,1.13,.84,1.68,.25,.59,.54,1.16,.86,1.72,.25,.59,.54,1.16,.86,1.72,.25,.59,.54,1.16,.86,1.72,.25,.59,.54,1.16,.86,1.72,.25,.59,.54,1.16,.86,1.72,.68,1.61,1.63,3.11,2.83,4.44,3.03,3.37,7.36,5.3,11.9,5.3h115.84c8.57,0,15.63-6.76,15.99-15.33l.29-6.96h4.68c8.64,0,15.73-6.87,15.99-15.51l3.89-125.86c.01-.26,.02-.53,.02-.8,0-1.16-.12-2.29-.36-3.39-.05-.76-.16-1.51-.32-2.25-.05-.77-.16-1.54-.32-2.29-.05-.77-.16-1.54-.32-2.28-.05-.77-.16-1.54-.32-2.29-.05-.77-.16-1.54-.32-2.29-.05-.77-.16-1.54-.32-2.29-.05-.77-.16-1.54-.32-2.29-.05-.77-.16-1.54-.32-2.29-.05-.77-.16-1.54-.32-2.29-.05-.77-.16-1.54-.32-2.29-.05-.77-.16-1.54-.32-2.29-.05-.77-.16-1.54-.32-2.29-.05-.77-.16-1.54-.32-2.29-.05-.77-.16-1.54-.32-2.29-.05-.77-.16-1.54-.32-2.29-.05-.77-.16-1.54-.32-2.29-.05-.77-.16-1.54-.32-2.29-.05-.77-.16-1.54-.32-2.29-.05-.77-.16-1.54-.32-2.29-.05-.77-.16-1.54-.32-2.29-.05-.77-.16-1.54-.32-2.29-.05-.77-.16-1.54-.32-2.29-.05-.77-.16-1.54-.32-2.29-.05-.77-.16-1.54-.32-2.29-.05-.77-.16-1.54-.32-2.29-.05-.77-.16-1.54-.32-2.29-.05-.77-.16-1.53-.32-2.28-.05-.77-.16-1.54-.32-2.29-.05-.77-.16-1.54-.32-2.29-.05-.77-.16-1.54-.32-2.29-.05-.77-.16-1.54-.32-2.29-.05-.77-.16-1.54-.32-2.29-.05-.77-.16-1.54-.32-2.29-.05-.77-.16-1.54-.32-2.29-.05-.77-.16-1.54-.32-2.29-.05-.77-.16-1.54-.32-2.29-.05-.77-.16-1.54-.32-2.29-.05-.77-.16-1.54-.32-2.29-.05-.77-.16-1.54-.32-2.29-.05-.77-.16-1.54-.32-2.29-.25-3.77-1.83-7.35-4.48-10.08-3.01-3.11-7.16-4.86-11.49-4.86h-3.49l-.02-.07c-.07-.8-.2-1.59-.39-2.36-.07-.8-.2-1.59-.39-2.36-.07-.8-.2-1.59-.39-2.36-.32-3.61-1.85-7.03-4.39-9.67-3.02-3.15-7.19-4.93-11.55-4.93h0Zm0,32h0Z"/></g><g><path class="g" d="M796.84,749.21c-3.77,0-6.99-2.62-7.8-6.23-.11,.22-.23,.45-.36,.66-.33,1.04-.88,2.01-1.61,2.85-1.52,1.73-3.71,2.72-6.01,2.72h-126.5c-4.23,0-7.73-3.29-7.99-7.52l-10.15-167.25c-.05-.86,.04-1.71,.25-2.53-.03-.8,.06-1.6,.26-2.36-.03-.8,.06-1.6,.26-2.36-.03-.8,.06-1.6,.26-2.36-.03-.8,.06-1.6,.26-2.36-.03-.8,.06-1.59,.26-2.36-.03-.8,.06-1.6,.26-2.36-.03-.8,.06-1.6,.26-2.36-.03-.8,.06-1.6,.26-2.36-.03-.8,.06-1.6,.26-2.36-.03-.8,.06-1.59,.26-2.36-.03-.8,.06-1.6,.26-2.36-.03-.8,.06-1.6,.26-2.36-.03-.8,.06-1.6,.26-2.36-.03-.8,.06-1.6,.26-2.36-.03-.8,.06-1.59,.26-2.36-.03-.8,.06-1.6,.26-2.36-.03-.8,.06-1.6,.26-2.36-.03-.8,.06-1.6,.26-2.36-.03-.8,.06-1.6,.26-2.36-.03-.8,.06-1.59,.26-2.36-.03-.8,.06-1.6,.26-2.36-.03-.8,.06-1.6,.26-2.36-.03-.8,.06-1.6,.26-2.36-.03-.8,.06-1.59,.26-2.36-.03-.8,.06-1.6,.26-2.36-.03-.8,.06-1.6,.26-2.36-.03-.8,.06-1.6,.26-2.36-.03-.8,.06-1.6,.26-2.36-.03-.8,.06-1.59,.26-2.36-.03-.8,.06-1.6,.26-2.36-.03-.8,.06-1.6,.26-2.36-.03-.8,.06-1.6,.26-2.36-.03-.8,.06-1.59,.26-2.36-.03-.8,.06-1.6,.26-2.36-.03-.8,.06-1.6,.26-2.36-.03-.8,.06-1.6,.26-2.36-.03-.8,.06-1.6,.26-2.36-.03-.8,.06-1.59,.26-2.36-.03-.8,.06-1.6,.26-2.36-.03-.8,.06-1.6,.26-2.36-.08-2.14,.7-4.23,2.17-5.8,1.51-1.61,3.62-2.52,5.83-2.52h132.82c4.02,0,7.41,2.98,7.93,6.96l.17,1.29c.14-.51,.33-1,.56-1.48,.23-1.48,.87-2.88,1.87-4.03,1.52-1.75,3.72-2.75,6.04-2.75h138.2c3.78,0,7.04,2.64,7.83,6.34l10.07,47.52c.5,2.34-.08,4.77-1.57,6.64-.29,.79-.71,1.53-1.24,2.2-.29,.79-.71,1.53-1.24,2.2-.21,.57-.48,1.11-.82,1.62h1.08c3.78,0,7.04,2.64,7.83,6.34l26.9,126.93c.5,2.36-.09,4.82-1.61,6.69-.2,.25-.42,.49-.65,.71-.21,.35-.44,.69-.7,1.01-.2,.25-.42,.48-.65,.71-.21,.35-.44,.69-.7,1.01-.2,.25-.42,.49-.65,.71-.21,.35-.44,.69-.7,1.01-.2,.25-.42,.48-.64,.7-.21,.35-.44,.69-.7,1.01-.2,.25-.42,.49-.65,.71-.21,.35-.44,.69-.7,1.01-.2,.25-.42,.48-.65,.71-.21,.35-.44,.69-.7,1.02-.2,.25-.42,.48-.64,.71-.21,.35-.44,.69-.7,1.01-.2,.25-.42,.49-.65,.71-.21,.35-.44,.69-.7,1.01-.2,.25-.42,.49-.65,.71-.21,.35-.44,.69-.7,1.01-.2,.25-.42,.48-.65,.71-.21,.35-.44,.69-.7,1.02-.2,.25-.42,.48-.64,.71-.21,.35-.44,.69-.7,1.01-.2,.25-.42,.49-.65,.71-.21,.35-.44,.69-.7,1.01-.2,.25-.42,.49-.65,.71-.21,.35-.44,.69-.7,1.01-.2,.25-.42,.48-.65,.71-.21,.35-.44,.69-.7,1.02-.2,.25-.42,.48-.64,.7-.21,.35-.44,.69-.7,1.01-.2,.25-.42,.49-.65,.71-.21,.35-.44,.69-.7,1.01-.2,.25-.42,.49-.65,.71-.21,.35-.44,.69-.7,1.01-.2,.25-.42,.48-.64,.7-.21,.35-.44,.69-.7,1.02-.2,.25-.42,.49-.65,.71-.21,.35-.44,.69-.7,1.01-.2,.25-.42,.49-.65,.71-.21,.35-.44,.69-.7,1.01-.2,.25-.42,.49-.65,.71-.21,.35-.44,.69-.7,1.01-.2,.25-.42,.48-.64,.7-.21,.35-.44,.69-.7,1.02-.2,.25-.42,.49-.65,.71-.21,.35-.44,.69-.7,1.01-.2,.25-.42,.49-.65,.71-.21,.35-.44,.69-.7,1.01-.2,.25-.42,.49-.65,.71-.21,.35-.44,.69-.7,1.01-.2,.25-.42,.48-.64,.7-.21,.35-.44,.69-.7,1.02-.2,.25-.42,.49-.65,.71-.21,.35-.44,.69-.7,1.01-.2,.25-.42,.49-.65,.71-.21,.35-.44,.69-.7,1.01-.2,.25-.42,.48-.64,.7-.21,.35-.44,.69-.7,1.01-.2,.25-.42,.49-.65,.71-.21,.35-.44,.69-.7,1.01-.2,.25-.42,.49-.65,.71-.21,.35-.44,.69-.7,1.01-.2,.25-.42,.48-.64,.7-.21,.35-.44,.69-.7,1.01-.2,.25-.42,.49-.65,.71-.21,.35-.44,.69-.7,1.02-.2,.25-.42,.49-.65,.71-.21,.35-.44,.69-.7,1.01-.2,.25-.42,.49-.65,.71-.21,.35-.44,.69-.7,1.01-.2,.25-.42,.48-.65,.71-.21,.35-.44,.69-.7,1.01-.2,.25-.42,.49-.65,.71-.21,.35-.44,.69-.7,1.01-.2,.25-.42,.48-.65,.71-.21,.35-.44,.69-.7,1.02-.2,.25-.42,.49-.65,.71-.21,.35-.44,.69-.7,1.01-.2,.25-.42,.48-.64,.7-.21,.35-.44,.69-.7,1.01-.2,.25-.42,.49-.65,.71-.21,.35-.44,.69-.7,1.01-1.52,1.87-3.8,2.96-6.22,2.96h-131.62Z"/><path class="g" d="M942.62,477.23l10.07,47.52h-1.71l.47,2.2h-1.71l.47,2.2h-1.71l.47,2.2h-1.71l.47,2.2h-1.71l.47,2.2h-1.71l.47,2.2h-1.71l.47,2.2h-1.71l.47,2.2h-1.71l.29,1.39h15.39l26.9,126.93h-1.71l.36,1.72h-1.71l.36,1.72h-1.71l.36,1.72h-1.71l.36,1.72h-1.71l.36,1.72h-1.71l.36,1.72h-1.71l.36,1.72h-1.71l.36,1.72h-1.71l.36,1.72h-1.71l.36,1.72h-1.71l.36,1.72h-1.71l.36,1.72h-1.71l.36,1.72h-1.71l.36,1.72h-1.71l.36,1.72h-1.71l.36,1.72h-1.71l.36,1.72h-1.71l.36,1.72h-1.71l.36,1.72h-1.71l.36,1.72h-1.71l.36,1.72h-1.71l.36,1.72h-1.71l.36,1.72h-1.71l.36,1.72h-1.71l.36,1.72h-1.71l.36,1.72h-1.71l.36,1.72h-1.71l.36,1.72h-1.71l.36,1.72h-1.71l.36,1.72h-1.71l.36,1.72h-1.71l.36,1.72h-1.71l.36,1.72h-1.71l.36,1.72h-1.71l.36,1.72h-1.71l.36,1.72h-1.71l.36,1.72h-1.71l.36,1.72h-1.71l.36,1.72h-1.71l.36,1.72h-1.71l.36,1.72h-131.63l-3.83-27.52h-.45l.22,1.72h-1.01l.22,1.72h-1.01l.22,1.72h-1.01l.22,1.72h-1.01l.22,1.72h-1.01l.22,1.72h-1.01l.22,1.72h-1.01l.22,1.72h-1.01l.22,1.72h-1.01l.22,1.72h-1.01l.22,1.72h-1.01l.22,1.72h-1.01l.22,1.72h-1.01l.22,1.72h-1.01l.22,1.72h-1.01l.22,1.72h-126.5l-10.15-167.25h.4l-.14-2.36h.4l-.14-2.36h.4l-.14-2.36h.4l-.14-2.36h.4l-.14-2.36h.4l-.14-2.36h.4l-.14-2.36h.4l-.14-2.36h.4l-.14-2.36h.4l-.14-2.36h.4l-.14-2.36h.4l-.14-2.36h.4l-.14-2.36h.4l-.14-2.36h.4l-.14-2.36h.4l-.14-2.36h.4l-.14-2.36h.4l-.14-2.36h.4l-.14-2.36h.4l-.14-2.36h.4l-.14-2.36h.4l-.14-2.36h.4l-.14-2.36h.4l-.14-2.36h.4l-.14-2.36h.4l-.14-2.36h.4l-.14-2.36h.4l-.14-2.36h.4l-.14-2.36h.4l-.14-2.36h.4l-.14-2.36h.4l-.14-2.36h.4l-.14-2.36h.4l-.14-2.36h.4l-.14-2.36h.4l-.14-2.36h.4l-.14-2.36h.4l-.14-2.36h.4l-.14-2.36h.4l-.14-2.36h.4l-.14-2.36h132.82l4.93,37.75h.67l-.33-2.36h1.08l-.33-2.36h1.08l-.33-2.36h1.08l-.33-2.36h1.08l-.33-2.36h1.08l-.33-2.36h1.08l-.33-2.36h1.08l-.33-2.36h1.08l-.33-2.36h1.08l-.33-2.36h1.08l-.33-2.36h1.08l-.33-2.36h1.08l-.33-2.36h1.08l-.33-2.36h1.08l-.33-2.36h1.08l-.33-2.36h138.2m0-16h-138.2c-2.95,0-5.81,.82-8.29,2.31-2.43-1.47-5.27-2.31-8.29-2.31h-132.82c-4.41,0-8.63,1.82-11.65,5.03-2.67,2.84-4.2,6.54-4.34,10.4-.14,.78-.23,1.56-.26,2.36-.14,.78-.23,1.56-.26,2.36-.14,.78-.23,1.56-.26,2.36-.14,.78-.23,1.56-.26,2.36-.14,.78-.23,1.56-.26,2.36-.14,.78-.23,1.56-.26,2.36-.14,.78-.23,1.56-.26,2.36-.14,.77-.23,1.56-.26,2.36-.14,.78-.23,1.56-.26,2.36-.14,.78-.23,1.56-.26,2.36-.14,.78-.23,1.56-.26,2.36-.14,.78-.23,1.56-.26,2.36-.14,.78-.23,1.56-.26,2.36-.14,.78-.23,1.56-.26,2.36-.14,.78-.23,1.57-.26,2.36-.14,.78-.23,1.56-.26,2.36-.14,.78-.23,1.56-.26,2.36-.14,.78-.23,1.56-.26,2.36-.14,.78-.23,1.57-.26,2.36-.14,.78-.23,1.56-.26,2.36-.14,.78-.23,1.56-.26,2.36-.14,.78-.23,1.56-.26,2.36-.14,.78-.23,1.56-.26,2.36-.14,.78-.23,1.56-.26,2.36-.14,.78-.23,1.56-.26,2.36-.14,.78-.23,1.56-.26,2.36-.14,.78-.23,1.56-.26,2.36-.14,.78-.23,1.56-.26,2.36-.14,.78-.23,1.56-.26,2.36-.14,.77-.23,1.56-.26,2.36-.14,.78-.23,1.56-.26,2.36-.14,.78-.23,1.57-.26,2.36-.14,.78-.23,1.56-.26,2.36-.14,.78-.23,1.56-.26,2.36-.14,.78-.23,1.56-.26,2.36-.14,.78-.23,1.56-.26,2.36-.14,.78-.23,1.56-.26,2.36-.14,.78-.23,1.56-.26,2.36-.14,.77-.23,1.56-.26,2.36-.14,.78-.23,1.56-.26,2.36-.24,1.27-.32,2.58-.24,3.89l10.15,167.25c.51,8.44,7.51,15.03,15.97,15.03h126.5c2.8,0,5.51-.73,7.89-2.08,2.34,1.33,5.04,2.08,7.89,2.08h131.63c4.83,0,9.39-2.18,12.43-5.93,.29-.36,.56-.72,.81-1.1,.18-.2,.36-.41,.53-.62,.29-.36,.56-.72,.81-1.1,.18-.2,.36-.41,.53-.62,.29-.36,.56-.72,.81-1.1,.18-.2,.36-.41,.53-.62,.29-.36,.56-.72,.81-1.1,.18-.2,.36-.41,.53-.62,.29-.36,.56-.72,.81-1.1,.18-.2,.36-.41,.53-.62,.29-.36,.56-.72,.81-1.1,.18-.2,.36-.41,.53-.62,.29-.36,.56-.72,.81-1.1,.18-.2,.36-.41,.53-.62,.29-.36,.56-.72,.81-1.1,.18-.2,.36-.41,.53-.62,.29-.36,.56-.72,.81-1.1,.18-.2,.36-.41,.53-.62,.29-.36,.56-.72,.81-1.1,.18-.2,.36-.41,.53-.62,.29-.36,.56-.72,.81-1.1,.18-.2,.36-.41,.53-.62,.29-.36,.56-.72,.81-1.1,.18-.2,.36-.41,.53-.62,.29-.36,.56-.72,.81-1.1,.18-.2,.36-.41,.53-.62,.29-.36,.56-.72,.82-1.1,.18-.2,.36-.41,.53-.62,.29-.36,.56-.72,.81-1.1,.18-.2,.36-.41,.53-.62,.29-.36,.56-.72,.81-1.1,.18-.2,.36-.41,.53-.62,.29-.36,.56-.72,.81-1.1,.18-.2,.36-.41,.53-.62,.29-.36,.56-.72,.81-1.1,.18-.2,.36-.41,.53-.62,.29-.36,.56-.72,.81-1.1,.18-.2,.36-.41,.53-.62,.29-.36,.56-.72,.81-1.1,.18-.2,.36-.41,.53-.62,.29-.36,.56-.72,.81-1.1,.18-.2,.36-.41,.53-.62,.29-.36,.56-.72,.81-1.1,.18-.2,.36-.41,.53-.62,.29-.36,.56-.72,.81-1.1,.18-.2,.36-.41,.53-.62,.29-.36,.56-.72,.81-1.1,.18-.2,.36-.41,.53-.62,.29-.36,.56-.72,.82-1.1,.18-.2,.36-.41,.53-.62,.29-.36,.56-.72,.81-1.1,.18-.2,.36-.41,.53-.62,.29-.36,.56-.72,.81-1.1,.18-.2,.36-.41,.53-.62,.29-.36,.56-.72,.81-1.1,.18-.2,.36-.41,.53-.62,.29-.36,.56-.72,.81-1.1,.18-.2,.36-.41,.53-.62,.29-.36,.56-.72,.81-1.1,.18-.2,.36-.41,.53-.62,.29-.36,.56-.72,.81-1.1,.18-.2,.36-.41,.53-.62,.29-.36,.56-.72,.81-1.1,.18-.2,.36-.41,.53-.62,.29-.36,.56-.72,.81-1.1,.18-.2,.36-.41,.53-.62,.29-.36,.56-.72,.81-1.1,.18-.2,.36-.41,.53-.62,.29-.36,.56-.72,.82-1.1,.18-.2,.36-.41,.53-.62,.29-.36,.56-.72,.81-1.1,.18-.2,.36-.41,.53-.62,.29-.36,.56-.72,.82-1.1,.18-.2,.36-.41,.53-.62,.29-.36,.56-.72,.81-1.1,.18-.2,.36-.41,.53-.62,.29-.36,.56-.72,.81-1.1,.18-.2,.36-.41,.53-.62,.29-.36,.56-.72,.81-1.1,.18-.2,.36-.41,.53-.62,.29-.36,.56-.72,.81-1.1,.18-.2,.36-.41,.53-.62,3.04-3.75,4.22-8.67,3.22-13.39l-26.9-126.93c-.75-3.54-2.64-6.6-5.23-8.82,1.49-3.14,1.94-6.72,1.2-10.19l-10.07-47.52c-1.57-7.39-8.09-12.68-15.65-12.68h0Z"/></g><g><path class="g" d="M504.36,749.21c-2.15,0-4.21-.87-5.72-2.41-1.37-1.4-2.17-3.25-2.27-5.2-.15-.56-.25-1.13-.28-1.72-.15-.56-.25-1.13-.28-1.72-.15-.56-.25-1.14-.28-1.72-.15-.56-.25-1.13-.28-1.72-.15-.56-.25-1.13-.28-1.72-.15-.56-.25-1.13-.28-1.72-.15-.56-.25-1.14-.28-1.72-.15-.56-.25-1.13-.28-1.72-.15-.56-.25-1.14-.28-1.72-.15-.56-.25-1.13-.28-1.72-.15-.56-.25-1.13-.28-1.72-.15-.56-.25-1.14-.28-1.72-.15-.56-.25-1.13-.28-1.72-.15-.56-.25-1.13-.28-1.72-.15-.56-.25-1.14-.28-1.72-.15-.56-.25-1.13-.28-1.72-.15-.56-.25-1.13-.28-1.72-.15-.56-.25-1.14-.28-1.72-.15-.56-.25-1.13-.28-1.72-.15-.56-.25-1.13-.28-1.72-.15-.56-.25-1.14-.28-1.72-.15-.56-.25-1.13-.28-1.72-.15-.56-.25-1.14-.28-1.72-.15-.56-.25-1.14-.28-1.72-.15-.56-.25-1.13-.28-1.72-.15-.56-.25-1.13-.28-1.72-.15-.56-.25-1.14-.28-1.72-.15-.56-.25-1.13-.28-1.72-.15-.56-.25-1.13-.28-1.72-.15-.56-.25-1.14-.28-1.72-.15-.56-.25-1.13-.28-1.72-.15-.56-.25-1.13-.28-1.72-.15-.56-.25-1.13-.28-1.72-.15-.56-.25-1.14-.28-1.72-.15-.56-.25-1.13-.28-1.72-.15-.56-.25-1.14-.28-1.72-.15-.56-.25-1.13-.28-1.72-.15-.56-.25-1.13-.28-1.72-.15-.56-.25-1.14-.28-1.72-.15-.56-.25-1.14-.28-1.72-.2-.74-.3-1.51-.28-2.29l4.29-193.46c.1-4.35,3.65-7.82,8-7.82h123.64c4.29,0,7.81,3.38,7.99,7.66l.36,8.38h8.37c4.26,0,7.77,3.34,7.99,7.59l8.1,158.3c.04,.79-.04,1.57-.22,2.32,0,.6-.09,1.2-.23,1.78,0,.61-.09,1.21-.23,1.79,0,.6-.09,1.2-.23,1.78,0,.61-.09,1.21-.23,1.79,0,.6-.09,1.2-.23,1.78,0,.61-.09,1.21-.23,1.79,0,.61-.09,1.2-.23,1.78,0,.6-.09,1.2-.23,1.78,0,.61-.09,1.21-.23,1.79,0,.6-.09,1.2-.23,1.78,0,.61-.09,1.21-.23,1.79,0,.61-.09,1.2-.23,1.78,0,.6-.09,1.2-.23,1.78,0,.61-.09,1.21-.23,1.79,0,.6-.09,1.2-.23,1.78,0,.61-.09,1.21-.23,1.79,0,.6-.09,1.2-.23,1.78,0,.61-.09,1.21-.23,1.79,0,.61-.09,1.2-.23,1.78,0,.6-.09,1.2-.23,1.78,0,.61-.09,1.21-.23,1.79,0,.6-.09,1.2-.23,1.78,0,.61-.09,1.21-.23,1.79,0,.6-.09,1.2-.23,1.78,0,.61-.09,1.21-.23,1.79,0,.6-.09,1.2-.23,1.78,0,.6-.09,1.2-.23,1.78,0,.61-.09,1.21-.23,1.79,0,.6-.09,1.2-.23,1.78,0,.6-.09,1.2-.23,1.78,0,.61-.09,1.21-.23,1.79,0,.6-.09,1.2-.23,1.78,0,.61-.09,1.21-.23,1.79,0,.6-.09,1.2-.23,1.78,0,.61-.09,1.21-.23,1.79,0,.61-.09,1.2-.23,1.78,0,.6-.09,1.2-.23,1.78,0,.61-.09,1.21-.23,1.79,0,.6-.09,1.2-.23,1.78,0,.61-.09,1.21-.23,1.79-.03,2-.81,3.93-2.2,5.39-1.51,1.59-3.61,2.49-5.8,2.49h-5.43c0,.54-.06,1.07-.17,1.59,0,.58-.06,1.16-.17,1.72,0,.58-.06,1.16-.17,1.72,0,.58-.06,1.16-.17,1.72,0,.58-.06,1.16-.17,1.72,.01,2.08-.78,4.08-2.22,5.59-1.51,1.57-3.6,2.46-5.78,2.46h-117.76Z"/><path class="g" d="M620.99,477.23l.69,16.04h16.04l8.1,158.3h-.32l.09,1.78h-.32l.09,1.78h-.32l.09,1.78h-.32l.09,1.78h-.32l.09,1.78h-.32l.09,1.78h-.32l.09,1.78h-.32l.09,1.78h-.32l.09,1.78h-.32l.09,1.78h-.32l.09,1.78h-.32l.09,1.78h-.32l.09,1.78h-.32l.09,1.78h-.32l.09,1.78h-.32l.09,1.78h-.32l.09,1.78h-.32l.09,1.78h-.32l.09,1.78h-.32l.09,1.78h-.32l.09,1.78h-.32l.09,1.78h-.32l.09,1.78h-.32l.09,1.78h-.32l.09,1.78h-.32l.09,1.78h-.32l.09,1.78h-.32l.09,1.78h-.32l.09,1.78h-.32l.09,1.78h-.32l.09,1.78h-.32l.09,1.78h-.32l.09,1.78h-.32l.09,1.78h-.32l.09,1.78h-.32l.09,1.78h-.32l.09,1.78h-.32l.09,1.78h-.32l.09,1.78h-.32l.09,1.78h-.32l.09,1.78h-12.78l.05,1.06h-.25l.07,1.72h-.25l.07,1.72h-.25l.07,1.72h-.25l.07,1.72h-.25l.07,1.72h-.25l.07,1.72h-.25l.07,1.72h-.25l.07,1.72h-.25l.07,1.72h-117.76l.04-1.72h-.31l.04-1.72h-.31l.04-1.72h-.31l.04-1.72h-.31l.04-1.72h-.31l.04-1.72h-.31l.04-1.72h-.31l.04-1.72h-.31l.04-1.72h-.31l.04-1.72h-.31l.04-1.72h-.31l.04-1.72h-.31l.04-1.72h-.31l.04-1.72h-.31l.04-1.72h-.31l.04-1.72h-.31l.04-1.72h-.31l.04-1.72h-.31l.04-1.72h-.31l.04-1.72h-.31l.04-1.72h-.31l.04-1.72h-.31l.04-1.72h-.31l.04-1.72h-.31l.04-1.72h-.31l.04-1.72h-.31l.04-1.72h-.31l.04-1.72h-.31l.04-1.72h-.31l.04-1.72h-.31l.04-1.72h-.31l.04-1.72h-.31l.04-1.72h-.31l.04-1.72h-.31l.04-1.72h-.31l.04-1.72h-.31l.04-1.72h-.31l.04-1.72h-.31l.04-1.72h-.31l.04-1.72h-.31l.04-1.72h-.31l4.29-193.46h123.64m0-16h-123.64c-8.7,0-15.8,6.95-16,15.64l-4.29,193.46c-.03,1.27,.09,2.52,.36,3.74,.06,.58,.15,1.15,.28,1.72,.06,.58,.15,1.15,.28,1.72,.06,.58,.15,1.16,.28,1.72,.06,.58,.15,1.15,.28,1.72,.06,.58,.15,1.15,.28,1.72,.06,.58,.15,1.15,.28,1.72,.06,.58,.15,1.15,.28,1.72,.06,.58,.15,1.16,.28,1.72,.06,.58,.15,1.15,.28,1.72,.06,.58,.15,1.15,.28,1.72,.06,.58,.15,1.15,.28,1.72,.06,.58,.15,1.15,.28,1.72,.06,.58,.15,1.15,.28,1.72,.06,.58,.15,1.15,.28,1.72,.06,.58,.15,1.15,.28,1.72,.06,.58,.15,1.15,.28,1.72,.06,.58,.15,1.15,.28,1.72,.06,.58,.15,1.15,.28,1.72,.06,.58,.15,1.15,.28,1.72,.06,.58,.15,1.15,.28,1.72,.06,.58,.15,1.15,.28,1.72,.06,.58,.15,1.15,.28,1.72,.06,.58,.15,1.15,.28,1.72,.06,.58,.15,1.15,.28,1.72,.06,.58,.15,1.15,.28,1.72,.06,.58,.15,1.15,.28,1.72,.06,.58,.15,1.15,.28,1.72,.06,.58,.15,1.15,.28,1.72,.06,.58,.15,1.16,.28,1.72,.06,.58,.15,1.15,.28,1.72,.06,.58,.15,1.15,.28,1.72,.06,.58,.15,1.15,.28,1.72,.06,.58,.15,1.15,.28,1.72,.06,.58,.15,1.16,.28,1.72,.06,.58,.15,1.15,.28,1.72,.06,.58,.15,1.15,.28,1.72,.06,.58,.15,1.15,.28,1.72,.06,.58,.15,1.15,.28,1.72,.06,.58,.15,1.15,.28,1.72,.06,.58,.15,1.15,.28,1.72,.37,3.57,1.94,6.93,4.47,9.52,3.01,3.08,7.13,4.81,11.44,4.81h117.76c4.36,0,8.54-1.78,11.55-4.93,2.68-2.8,4.25-6.47,4.43-10.32,.07-.46,.12-.93,.16-1.39,3.71-.43,7.17-2.14,9.76-4.87,2.57-2.7,4.1-6.2,4.36-9.88,.11-.59,.19-1.18,.23-1.78,.11-.59,.19-1.18,.23-1.78,.11-.59,.19-1.18,.23-1.78,.11-.59,.19-1.18,.23-1.78,.11-.59,.19-1.18,.23-1.78,.11-.59,.19-1.18,.23-1.78,.11-.59,.19-1.18,.23-1.78,.11-.59,.19-1.18,.23-1.78,.11-.59,.19-1.18,.23-1.78,.11-.59,.19-1.18,.23-1.78,.11-.59,.19-1.18,.23-1.78,.11-.59,.19-1.18,.23-1.78,.11-.59,.19-1.18,.23-1.78,.11-.59,.19-1.18,.23-1.78,.11-.59,.19-1.18,.23-1.78,.11-.59,.19-1.18,.23-1.78,.11-.59,.19-1.18,.23-1.78,.11-.59,.19-1.18,.23-1.78,.11-.59,.19-1.18,.23-1.78,.11-.59,.19-1.18,.23-1.78,.11-.59,.19-1.18,.23-1.78,.11-.59,.19-1.18,.23-1.78,.11-.59,.19-1.18,.23-1.78,.11-.59,.19-1.18,.23-1.78,.11-.59,.19-1.18,.23-1.78,.11-.59,.19-1.18,.23-1.78,.11-.59,.19-1.18,.23-1.78,.11-.59,.19-1.18,.23-1.78,.11-.59,.19-1.18,.23-1.79,.11-.59,.19-1.18,.23-1.78,.11-.59,.19-1.18,.23-1.78,.11-.59,.19-1.18,.23-1.78,.11-.59,.19-1.18,.23-1.78,.11-.59,.19-1.18,.23-1.78,.11-.59,.19-1.18,.23-1.79,.11-.59,.19-1.18,.23-1.78,.11-.59,.19-1.18,.23-1.78,.11-.59,.19-1.18,.23-1.78,.11-.59,.19-1.18,.23-1.78,.11-.59,.19-1.18,.23-1.78,.23-1.22,.31-2.48,.25-3.75l-8.1-158.3c-.44-8.51-7.46-15.18-15.98-15.18h-.71l-.03-.72c-.37-8.56-7.42-15.32-15.99-15.32h0Z"/></g></g><g><g><path class="c" d="M246.56,573.96l-3.42,18.8h18.21l-3.15,18.43h19.6l-3.13,19.67h7.41l8.81-56.89h47.05l-21.1,167.25h-51.84l3.45-22.29h-20.86l3.47-20.85h-20.62l3.78-21.24h-7.61l-11.75,64.38h-53.33l35.44-167.25h49.57Z"/><path class="c" d="M390.91,694.5h47.39l4.79-78.85h-45.27l-6.9,78.85Zm-54.18,24.42l14.72-126.16h17.63l1.99-18.8h105.14l-.79,18.8h18.61l-3.9,126.16h-20.02l-.94,22.29h-115.84l2.36-22.29h-18.96Z"/><path class="c" d="M560.07,693.16h21.81l-1.6-77.51h-20.85l.64,77.51Zm55.74-119.2l.59,13.86h13.86l7,136.85h-15.01l.71,16.54h-117.76l3.71-167.25h106.89Z"/><path class="c" d="M760.07,573.96l5.36,41.08h-66.29l1.5,16.43h66.94l5.84,44.7h-68.69l1.61,17.65h69.39l6.19,47.38h-126.5l-10.15-167.25h114.82Z"/><path class="c" d="M866.71,693.83l-3.22-17.65h-74.86l-14.23-102.22h119.47l8.71,41.08h-72.24l2.78,16.43h72.95l23.26,109.73h-131.63l-6.6-47.38h75.62Z"/></g><g><polygon class="c" points="245.29 571.6 241.86 590.47 260.15 590.47 256.99 608.97 276.66 608.97 273.52 628.71 280.96 628.71 289.8 571.6 337.04 571.6 315.85 739.49 263.81 739.49 267.28 717.12 246.34 717.12 249.82 696.19 229.13 696.19 232.92 674.87 225.28 674.87 213.49 739.49 159.95 739.49 195.53 571.6 245.29 571.6"/><path class="c" d="M390.19,692.6h47.57l4.81-79.15h-45.44l-6.93,79.15Zm-54.39,24.52l14.77-126.65h17.69l2-18.87h105.54l-.79,18.87h18.68l-3.92,126.65h-20.09l-.94,22.37h-116.28l2.37-22.37h-19.04Z"/><path class="c" d="M560,691.26h21.89l-1.61-77.81h-20.93l.65,77.81Zm55.96-119.66l.6,13.92h13.92l7.03,137.37h-15.07l.71,16.6h-118.21l3.73-167.89h107.29Z"/><polygon class="c" points="760.76 571.6 766.15 612.84 699.61 612.84 701.11 629.34 768.3 629.34 774.16 674.21 705.2 674.21 706.82 691.93 776.47 691.93 782.68 739.49 655.69 739.49 645.5 571.6 760.76 571.6"/><polygon class="c" points="867.81 691.93 864.59 674.21 789.43 674.21 775.15 571.6 895.07 571.6 903.81 612.84 831.29 612.84 834.08 629.34 907.31 629.34 930.65 739.49 798.53 739.49 791.9 691.93 867.81 691.93"/></g><g><polygon class="c" points="244.03 569.24 240.58 588.19 258.94 588.19 255.77 606.75 275.52 606.75 272.37 626.57 279.83 626.57 288.71 569.24 336.12 569.24 314.85 737.77 262.62 737.77 266.1 715.31 245.08 715.31 248.57 694.31 227.8 694.31 231.61 672.9 223.94 672.9 212.1 737.77 158.36 737.77 194.08 569.24 244.03 569.24"/><path class="c" d="M389.48,690.7h47.75l4.82-79.45h-45.61l-6.96,79.45Zm-54.6,24.61l14.83-127.13h17.76l2.01-18.95h105.95l-.8,18.95h18.75l-3.93,127.13h-20.17l-.95,22.46h-116.72l2.38-22.46h-19.11Z"/><path class="c" d="M559.93,689.36h21.97l-1.61-78.1h-21.01l.65,78.1Zm56.17-120.11l.6,13.97h13.97l7.06,137.9h-15.12l.71,16.66h-118.66l3.74-168.53h107.7Z"/><polygon class="c" points="761.46 569.24 766.87 610.64 700.07 610.64 701.58 627.2 769.03 627.2 774.91 672.24 705.69 672.24 707.31 690.03 777.23 690.03 783.46 737.77 655.99 737.77 645.76 569.24 761.46 569.24"/><polygon class="c" points="868.92 690.03 865.68 672.24 790.24 672.24 775.9 569.24 896.28 569.24 905.06 610.64 832.26 610.64 835.06 627.2 908.57 627.2 932 737.77 799.37 737.77 792.72 690.03 868.92 690.03"/></g><g><polygon class="c" points="242.76 566.88 239.31 585.9 257.73 585.9 254.55 604.54 274.37 604.54 271.21 624.43 278.71 624.43 287.61 566.88 335.21 566.88 313.86 736.05 261.43 736.05 264.91 713.51 243.82 713.51 247.33 692.42 226.47 692.42 230.3 670.94 222.6 670.94 210.72 736.05 156.77 736.05 192.63 566.88 242.76 566.88"/><path class="c" d="M388.77,688.81h47.93l4.84-79.75h-45.79l-6.98,79.75Zm-54.8,24.7l14.89-127.61h17.83l2.02-19.02h106.35l-.8,19.02h18.82l-3.94,127.61h-20.25l-.95,22.54h-117.17l2.39-22.54h-19.18Z"/><path class="c" d="M559.87,687.45h22.06l-1.62-78.4h-21.09l.65,78.4Zm56.38-120.57l.6,14.02h14.02l7.08,138.42h-15.18l.72,16.72h-119.11l3.76-169.17h108.11Z"/><polygon class="c" points="762.16 566.88 767.59 608.44 700.54 608.44 702.05 625.06 769.76 625.06 775.66 670.27 706.18 670.27 707.81 688.13 777.99 688.13 784.24 736.05 656.29 736.05 646.02 566.88 762.16 566.88"/><polygon class="c" points="870.03 688.13 866.77 670.27 791.05 670.27 776.65 566.88 897.49 566.88 906.3 608.44 833.23 608.44 836.04 625.06 909.82 625.06 933.34 736.05 800.21 736.05 793.54 688.13 870.03 688.13"/></g><g><polygon class="c" points="241.5 564.52 238.03 583.61 256.52 583.61 253.33 602.32 273.23 602.32 270.05 622.29 277.58 622.29 286.52 564.52 334.29 564.52 312.86 734.33 260.23 734.33 263.73 711.7 242.56 711.7 246.08 690.54 225.15 690.54 228.99 668.97 221.26 668.97 209.33 734.33 155.19 734.33 191.17 564.52 241.5 564.52"/><path class="c" d="M388.06,686.91h48.11l4.86-80.05h-45.96l-7.01,80.05Zm-55.01,24.8l14.94-128.09h17.9l2.02-19.09h106.75l-.8,19.09h18.89l-3.96,128.09h-20.32l-.95,22.63h-117.61l2.4-22.63h-19.25Z"/><path class="c" d="M559.8,685.55h22.14l-1.63-78.7h-21.17l.65,78.7Zm56.6-121.03l.6,14.08h14.08l7.11,138.94h-15.24l.72,16.79h-119.56l3.77-169.81h108.52Z"/><polygon class="c" points="762.86 564.52 768.3 606.23 701 606.23 702.52 622.92 770.48 622.92 776.41 668.3 706.66 668.3 708.3 686.23 778.75 686.23 785.03 734.33 656.59 734.33 646.28 564.52 762.86 564.52"/><polygon class="c" points="871.13 686.23 867.87 668.3 791.86 668.3 777.41 564.52 898.7 564.52 907.54 606.23 834.19 606.23 837.02 622.92 911.08 622.92 934.69 734.33 801.05 734.33 794.35 686.23 871.13 686.23"/></g><g><polygon class="c" points="240.23 562.16 236.75 581.32 255.31 581.32 252.11 600.1 272.08 600.1 268.89 620.15 276.45 620.15 285.42 562.16 333.38 562.16 311.87 732.61 259.04 732.61 262.55 709.9 241.29 709.9 244.83 688.65 223.82 688.65 227.68 667 219.92 667 207.95 732.61 153.6 732.61 189.72 562.16 240.23 562.16"/><path class="c" d="M387.34,685.01h48.29l4.88-80.35h-46.13l-7.04,80.35Zm-55.22,24.89l15-128.58h17.96l2.03-19.16h107.15l-.81,19.16h18.96l-3.97,128.58h-20.4l-.96,22.71h-118.05l2.41-22.71h-19.33Z"/><path class="c" d="M559.74,683.65h22.22l-1.63-78.99h-21.25l.66,78.99Zm56.81-121.48l.6,14.13h14.13l7.14,139.47h-15.3l.72,16.85h-120.01l3.78-170.45h108.93Z"/><polygon class="c" points="763.56 562.16 769.02 604.03 701.47 604.03 703 620.78 771.21 620.78 777.16 666.34 707.15 666.34 708.79 684.33 779.51 684.33 785.81 732.61 656.89 732.61 646.54 562.16 763.56 562.16"/><polygon class="c" points="872.24 684.33 868.96 666.34 792.67 666.34 778.16 562.16 899.91 562.16 908.79 604.03 835.16 604.03 837.99 620.78 912.34 620.78 936.04 732.61 801.89 732.61 795.17 684.33 872.24 684.33"/></g><g><polygon class="c" points="238.97 559.8 235.47 579.04 254.11 579.04 250.89 597.88 270.94 597.88 267.74 618 275.32 618 284.33 559.8 332.46 559.8 310.87 730.89 257.84 730.89 261.37 708.09 240.03 708.09 243.58 686.77 222.5 686.77 226.37 665.04 218.58 665.04 206.56 730.89 152.01 730.89 188.26 559.8 238.97 559.8"/><path class="c" d="M386.63,683.11h48.47l4.9-80.66h-46.31l-7.06,80.66Zm-55.43,24.98l15.05-129.06h18.03l2.04-19.23h107.55l-.81,19.23h19.03l-3.99,129.06h-20.48l-.96,22.8h-118.49l2.42-22.8h-19.4Z"/><path class="c" d="M559.67,681.74h22.31l-1.64-79.29h-21.32l.66,79.29Zm57.02-121.94l.61,14.18h14.18l7.16,139.99h-15.35l.72,16.91h-120.46l3.8-171.09h109.34Z"/><polygon class="c" points="764.26 559.8 769.74 601.83 701.93 601.83 703.47 618.64 771.94 618.64 777.91 664.37 707.64 664.37 709.28 682.43 780.26 682.43 786.59 730.89 657.18 730.89 646.8 559.8 764.26 559.8"/><polygon class="c" points="873.34 682.43 870.06 664.37 793.47 664.37 778.91 559.8 901.12 559.8 910.03 601.83 836.13 601.83 838.97 618.64 913.59 618.64 937.38 730.89 802.74 730.89 795.99 682.43 873.34 682.43"/></g><g><polygon class="c" points="237.71 557.44 234.2 576.75 252.9 576.75 249.67 595.67 269.79 595.67 266.58 615.86 274.19 615.86 283.23 557.44 331.55 557.44 309.88 729.17 256.65 729.17 260.19 706.29 238.77 706.29 242.34 684.88 221.17 684.88 225.05 663.07 217.24 663.07 205.18 729.17 150.42 729.17 186.81 557.44 237.71 557.44"/><path class="c" d="M385.92,681.21h48.65l4.91-80.96h-46.48l-7.09,80.96Zm-55.63,25.08l15.11-129.54h18.1l2.05-19.3h107.96l-.81,19.3h19.1l-4,129.54h-20.55l-.96,22.88h-118.94l2.43-22.88h-19.47Z"/><path class="c" d="M559.6,679.84h22.39l-1.64-79.58h-21.4l.66,79.58Zm57.24-122.39l.61,14.24h14.24l7.19,140.51h-15.41l.73,16.98h-120.91l3.81-171.73h109.75Z"/><polygon class="c" points="764.95 557.44 770.46 599.63 702.4 599.63 703.94 616.5 772.66 616.5 778.66 662.4 708.12 662.4 709.78 680.52 781.02 680.52 787.37 729.17 657.48 729.17 647.06 557.44 764.95 557.44"/><polygon class="c" points="874.45 680.52 871.15 662.4 794.28 662.4 779.66 557.44 902.33 557.44 911.27 599.63 837.1 599.63 839.95 616.5 914.85 616.5 938.73 729.17 803.58 729.17 796.8 680.52 874.45 680.52"/></g><g><polygon class="c" points="236.44 555.09 232.92 574.46 251.69 574.46 248.45 593.45 268.65 593.45 265.42 613.72 273.06 613.72 282.14 555.09 330.63 555.09 308.88 727.45 255.46 727.45 259.01 704.48 237.51 704.48 241.09 683 219.84 683 223.74 661.11 215.9 661.11 203.79 727.45 148.83 727.45 185.36 555.09 236.44 555.09"/><path class="c" d="M385.21,679.31h48.83l4.93-81.26h-46.65l-7.12,81.26Zm-55.84,25.17l15.17-130.02h18.17l2.05-19.38h108.36l-.82,19.38h19.18l-4.02,130.02h-20.63l-.97,22.97h-119.38l2.44-22.97h-19.54Z"/><path class="c" d="M559.54,677.93h22.47l-1.65-79.88h-21.48l.66,79.88Zm57.45-122.85l.61,14.29h14.29l7.22,141.04h-15.47l.73,17.04h-121.36l3.83-172.36h110.15Z"/><polygon class="c" points="765.65 555.09 771.18 597.43 702.86 597.43 704.41 614.36 773.39 614.36 779.41 660.43 708.61 660.43 710.27 678.62 781.78 678.62 788.15 727.45 657.78 727.45 647.32 555.09 765.65 555.09"/><polygon class="c" points="875.56 678.62 872.24 660.43 795.09 660.43 780.42 555.09 903.54 555.09 912.52 597.43 838.06 597.43 840.93 614.36 916.11 614.36 940.07 727.45 804.42 727.45 797.62 678.62 875.56 678.62"/></g><g><polygon class="c" points="235.18 552.73 231.64 572.17 250.48 572.17 247.23 591.23 267.5 591.23 264.27 611.58 271.93 611.58 281.04 552.73 329.72 552.73 307.88 725.73 254.26 725.73 257.83 702.68 236.25 702.68 239.84 681.11 218.52 681.11 222.43 659.14 214.56 659.14 202.41 725.73 147.24 725.73 183.9 552.73 235.18 552.73"/><path class="c" d="M384.49,677.41h49.02l4.95-81.56h-46.83l-7.14,81.56Zm-56.05,25.26l15.22-130.5h18.23l2.06-19.45h108.76l-.82,19.45h19.25l-4.03,130.5h-20.71l-.97,23.05h-119.82l2.44-23.05h-19.62Z"/><path class="c" d="M559.47,676.03h22.56l-1.66-80.18h-21.56l.67,80.18Zm57.66-123.3l.61,14.34h14.34l7.24,141.56h-15.52l.73,17.1h-121.81l3.84-173h110.56Z"/><polygon class="c" points="766.35 552.73 771.9 595.22 703.33 595.22 704.88 612.22 774.12 612.22 780.15 658.46 709.1 658.46 710.76 676.72 782.54 676.72 788.94 725.73 658.08 725.73 647.58 552.73 766.35 552.73"/><polygon class="c" points="876.66 676.72 873.34 658.46 795.9 658.46 781.17 552.73 904.75 552.73 913.76 595.22 839.03 595.22 841.9 612.22 917.36 612.22 941.42 725.73 805.26 725.73 798.44 676.72 876.66 676.72"/></g><g><polygon class="c" points="233.91 550.37 230.36 569.89 249.27 569.89 246.01 589.02 266.36 589.02 263.11 609.44 270.8 609.44 279.95 550.37 328.8 550.37 306.89 724.01 253.07 724.01 256.65 700.87 234.99 700.87 238.6 679.23 217.19 679.23 221.12 657.17 213.22 657.17 201.02 724.01 145.65 724.01 182.45 550.37 233.91 550.37"/><path class="c" d="M383.78,675.52h49.2l4.97-81.86h-47l-7.17,81.86Zm-56.25,25.36l15.28-130.99h18.3l2.07-19.52h109.16l-.82,19.52h19.32l-4.05,130.99h-20.78l-.97,23.14h-120.27l2.45-23.14h-19.69Z"/><path class="c" d="M559.41,674.13h22.64l-1.66-80.47h-21.64l.67,80.47Zm57.88-123.76l.62,14.39h14.39l7.27,142.08h-15.58l.73,17.17h-122.26l3.85-173.64h110.97Z"/><polygon class="c" points="767.05 550.37 772.62 593.02 703.8 593.02 705.35 610.08 774.85 610.08 780.9 656.49 709.59 656.49 711.26 674.82 783.3 674.82 789.72 724.01 658.38 724.01 647.84 550.37 767.05 550.37"/><polygon class="c" points="877.77 674.82 874.43 656.49 796.7 656.49 781.92 550.37 905.96 550.37 915 593.02 840 593.02 842.88 610.08 918.62 610.08 942.76 724.01 806.11 724.01 799.26 674.82 877.77 674.82"/></g><g><polygon class="c" points="232.65 548.01 229.09 567.6 248.07 567.6 244.79 586.8 265.21 586.8 261.95 607.29 269.68 607.29 278.85 548.01 327.89 548.01 305.89 722.29 251.87 722.29 255.47 699.07 233.73 699.07 237.35 677.34 215.86 677.34 219.81 655.21 211.88 655.21 199.63 722.29 144.06 722.29 180.99 548.01 232.65 548.01"/><path class="c" d="M383.07,673.62h49.38l4.99-82.16h-47.17l-7.19,82.16Zm-56.46,25.45l15.34-131.47h18.37l2.08-19.59h109.56l-.82,19.59h19.39l-4.06,131.47h-20.86l-.98,23.22h-120.71l2.46-23.22h-19.76Z"/><path class="c" d="M559.34,672.22h22.72l-1.67-80.77h-21.72l.67,80.77Zm58.09-124.22l.62,14.45h14.45l7.3,142.61h-15.64l.74,17.23h-122.71l3.87-174.28h111.38Z"/><polygon class="c" points="767.75 548.01 773.34 590.82 704.26 590.82 705.82 607.94 775.57 607.94 781.65 654.52 710.07 654.52 711.75 672.92 784.06 672.92 790.5 722.29 658.68 722.29 648.1 548.01 767.75 548.01"/><polygon class="c" points="878.87 672.92 875.52 654.52 797.51 654.52 782.68 548.01 907.17 548.01 916.25 590.82 840.96 590.82 843.86 607.94 919.88 607.94 944.11 722.29 806.95 722.29 800.07 672.92 878.87 672.92"/></g><g><polygon class="c" points="231.38 545.65 227.81 565.31 246.86 565.31 243.57 584.58 264.07 584.58 260.8 605.15 268.55 605.15 277.76 545.65 326.97 545.65 304.9 720.57 250.68 720.57 254.29 697.26 232.47 697.26 236.1 675.46 214.54 675.46 218.5 653.24 210.53 653.24 198.25 720.57 142.47 720.57 179.54 545.65 231.38 545.65"/><path class="c" d="M382.35,671.72h49.56l5.01-82.46h-47.34l-7.22,82.46Zm-56.67,25.54l15.39-131.95h18.43l2.09-19.66h109.97l-.83,19.66h19.46l-4.08,131.95h-20.94l-.98,23.31h-121.15l2.47-23.31h-19.83Z"/><path class="c" d="M559.27,670.32h22.81l-1.68-81.07h-21.8l.67,81.07Zm58.3-124.67l.62,14.5h14.5l7.32,143.13h-15.7l.74,17.29h-123.16l3.88-174.92h111.79Z"/><polygon class="c" points="768.45 545.65 774.06 588.62 704.73 588.62 706.29 605.8 776.3 605.8 782.4 652.56 710.56 652.56 712.24 671.02 784.81 671.02 791.28 720.57 658.97 720.57 648.36 545.65 768.45 545.65"/><polygon class="c" points="879.98 671.02 876.62 652.56 798.32 652.56 783.43 545.65 908.38 545.65 917.49 588.62 841.93 588.62 844.84 605.8 921.13 605.8 945.45 720.57 807.79 720.57 800.89 671.02 879.98 671.02"/></g><g><polygon class="c" points="230.12 543.29 226.53 563.02 245.65 563.02 242.35 582.37 262.92 582.37 259.64 603.01 267.42 603.01 276.66 543.29 326.06 543.29 303.9 718.85 249.49 718.85 253.11 695.46 231.21 695.46 234.85 673.57 213.21 673.57 217.18 651.28 209.19 651.28 196.86 718.85 140.88 718.85 178.09 543.29 230.12 543.29"/><path class="c" d="M381.64,669.82h49.74l5.02-82.77h-47.52l-7.25,82.77Zm-56.88,25.64l15.45-132.43h18.5l2.09-19.74h110.37l-.83,19.74h19.53l-4.09,132.43h-21.01l-.98,23.39h-121.59l2.48-23.39h-19.91Z"/><path class="c" d="M559.21,668.42h22.89l-1.68-81.36h-21.88l.68,81.36Zm58.51-125.13l.62,14.55h14.55l7.35,143.65h-15.75l.74,17.36h-123.61l3.9-175.56h112.2Z"/><polygon class="c" points="769.15 543.29 774.78 586.41 705.19 586.41 706.77 603.66 777.03 603.66 783.15 650.59 711.05 650.59 712.74 669.12 785.57 669.12 792.06 718.85 659.27 718.85 648.62 543.29 769.15 543.29"/><polygon class="c" points="881.09 669.12 877.71 650.59 799.13 650.59 784.18 543.29 909.59 543.29 918.73 586.41 842.9 586.41 845.81 603.66 922.39 603.66 946.8 718.85 808.63 718.85 801.71 669.12 881.09 669.12"/></g><g><polygon class="c" points="228.85 540.93 225.25 560.74 244.44 560.74 241.13 580.15 261.78 580.15 258.48 600.87 266.29 600.87 275.57 540.93 325.14 540.93 302.91 717.13 248.29 717.13 251.93 693.65 229.95 693.65 233.61 671.69 211.89 671.69 215.87 649.31 207.85 649.31 195.48 717.13 139.29 717.13 176.63 540.93 228.85 540.93"/><path class="c" d="M380.93,667.92h49.92l5.04-83.07h-47.69l-7.27,83.07Zm-57.08,25.73l15.5-132.92h18.57l2.1-19.81h110.77l-.83,19.81h19.6l-4.11,132.92h-21.09l-.99,23.48h-122.04l2.49-23.48h-19.98Z"/><path class="c" d="M559.14,666.51h22.97l-1.69-81.66h-21.96l.68,81.66Zm58.73-125.58l.63,14.61h14.61l7.38,144.17h-15.81l.75,17.42h-124.06l3.91-176.2h112.61Z"/><polygon class="c" points="769.84 540.93 775.49 584.21 705.66 584.21 707.24 601.52 777.75 601.52 783.9 648.62 711.53 648.62 713.23 667.22 786.33 667.22 792.85 717.13 659.57 717.13 648.87 540.93 769.84 540.93"/><polygon class="c" points="882.19 667.22 878.81 648.62 799.93 648.62 784.94 540.93 910.8 540.93 919.98 584.21 843.87 584.21 846.79 601.52 923.64 601.52 948.14 717.13 809.48 717.13 802.52 667.22 882.19 667.22"/></g><g><polygon class="c" points="227.59 538.57 223.98 558.45 243.23 558.45 239.91 577.93 260.63 577.93 257.32 598.73 265.16 598.73 274.47 538.57 324.22 538.57 301.91 715.41 247.1 715.41 250.75 691.85 228.69 691.85 232.36 669.8 210.56 669.8 214.56 647.34 206.51 647.34 194.09 715.41 137.7 715.41 175.18 538.57 227.59 538.57"/><path class="c" d="M380.22,666.02h50.1l5.06-83.37h-47.86l-7.3,83.37Zm-57.29,25.82l15.56-133.4h18.64l2.11-19.88h111.17l-.84,19.88h19.67l-4.12,133.4h-21.17l-.99,23.56h-122.48l2.5-23.56h-20.05Z"/><path class="c" d="M559.08,664.61h23.06l-1.69-81.95h-22.04l.68,81.95Zm58.94-126.04l.63,14.66h14.66l7.4,144.7h-15.87l.75,17.48h-124.51l3.93-176.84h113.01Z"/><polygon class="c" points="770.54 538.57 776.21 582.01 706.12 582.01 707.71 599.38 778.48 599.38 784.65 646.65 712.02 646.65 713.72 665.32 787.09 665.32 793.63 715.41 659.87 715.41 649.13 538.57 770.54 538.57"/><polygon class="c" points="883.3 665.32 879.9 646.65 800.74 646.65 785.69 538.57 912.01 538.57 921.22 582.01 844.83 582.01 847.77 599.38 924.9 599.38 949.49 715.41 810.32 715.41 803.34 665.32 883.3 665.32"/></g><g><polygon class="c" points="226.33 536.21 222.7 556.16 242.03 556.16 238.69 575.71 259.49 575.71 256.17 596.59 264.03 596.59 273.38 536.21 323.31 536.21 300.91 713.69 245.9 713.69 249.57 690.04 227.43 690.04 231.11 667.92 209.23 667.92 213.25 645.38 205.17 645.38 192.71 713.69 136.11 713.69 173.72 536.21 226.33 536.21"/><path class="c" d="M379.5,664.12h50.28l5.08-83.67h-48.04l-7.33,83.67Zm-57.5,25.92l15.62-133.88h18.7l2.12-19.95h111.57l-.84,19.95h19.74l-4.14,133.88h-21.24l-1,23.65h-122.92l2.51-23.65h-20.12Z"/><path class="c" d="M559.01,662.71h23.14l-1.7-82.25h-22.12l.68,82.25Zm59.15-126.49l.63,14.71h14.71l7.43,145.22h-15.93l.75,17.55h-124.96l3.94-177.48h113.42Z"/><polygon class="c" points="771.24 536.21 776.93 579.81 706.59 579.81 708.18 597.25 779.21 597.25 785.4 644.68 712.51 644.68 714.22 663.41 787.85 663.41 794.41 713.69 660.17 713.69 649.39 536.21 771.24 536.21"/><polygon class="c" points="884.41 663.41 880.99 644.68 801.55 644.68 786.44 536.21 913.22 536.21 922.46 579.81 845.8 579.81 848.75 597.25 926.16 597.25 950.84 713.69 811.16 713.69 804.16 663.41 884.41 663.41"/></g><g><polygon class="c" points="225.06 533.85 221.42 553.88 240.82 553.88 237.47 573.5 258.34 573.5 255.01 594.44 262.9 594.44 272.28 533.85 322.39 533.85 299.92 711.97 244.71 711.97 248.38 688.24 226.17 688.24 229.87 666.03 207.91 666.03 211.94 643.41 203.83 643.41 191.32 711.97 134.52 711.97 172.27 533.85 225.06 533.85"/><path class="c" d="M378.79,662.23h50.46l5.1-83.97h-48.21l-7.35,83.97Zm-57.7,26.01l15.67-134.36h18.77l2.12-20.02h111.97l-.84,20.02h19.82l-4.15,134.36h-21.32l-1,23.73h-123.37l2.52-23.73h-20.2Z"/><path class="c" d="M558.94,660.8h23.22l-1.71-82.55h-22.2l.69,82.55Zm59.37-126.95l.63,14.76h14.76l7.46,145.74h-15.98l.75,17.61h-125.41l3.95-178.12h113.83Z"/><polygon class="c" points="771.94 533.85 777.65 577.6 707.05 577.6 708.65 595.11 779.94 595.11 786.15 642.71 712.99 642.71 714.71 661.51 788.61 661.51 795.19 711.97 660.47 711.97 649.65 533.85 771.94 533.85"/><polygon class="c" points="885.51 661.51 882.09 642.71 802.36 642.71 787.2 533.85 914.43 533.85 923.71 577.6 846.77 577.6 849.73 595.11 927.41 595.11 952.18 711.97 812 711.97 804.98 661.51 885.51 661.51"/></g><g><polygon class="c" points="223.8 531.49 220.14 551.59 239.61 551.59 236.25 571.28 257.2 571.28 253.85 592.3 261.78 592.3 271.19 531.49 321.48 531.49 298.92 710.25 243.52 710.25 247.2 686.43 224.91 686.43 228.62 664.15 206.58 664.15 210.63 641.45 202.49 641.45 189.94 710.25 132.93 710.25 170.82 531.49 223.8 531.49"/><path class="c" d="M378.08,660.33h50.65l5.12-84.27h-48.38l-7.38,84.27Zm-57.91,26.1l15.73-134.84h18.84l2.13-20.09h112.38l-.85,20.09h19.89l-4.17,134.84h-21.4l-1,23.82h-123.81l2.53-23.82h-20.27Z"/><path class="c" d="M558.88,658.9h23.31l-1.71-82.84h-22.28l.69,82.84Zm59.58-127.41l.63,14.82h14.82l7.48,146.27h-16.04l.76,17.67h-125.86l3.97-178.76h114.24Z"/><polygon class="c" points="772.64 531.49 778.37 575.4 707.52 575.4 709.12 592.97 780.66 592.97 786.9 640.74 713.48 640.74 715.2 659.61 789.36 659.61 795.97 710.25 660.77 710.25 649.91 531.49 772.64 531.49"/><polygon class="c" points="886.62 659.61 883.18 640.74 803.17 640.74 787.95 531.49 915.64 531.49 924.95 575.4 847.73 575.4 850.7 592.97 928.67 592.97 953.53 710.25 812.84 710.25 805.79 659.61 886.62 659.61"/></g><g><polygon class="c" points="222.53 529.13 218.87 549.3 238.4 549.3 235.03 569.06 256.05 569.06 252.7 590.16 260.65 590.16 270.09 529.13 320.56 529.13 297.93 708.53 242.32 708.53 246.02 684.63 223.65 684.63 227.37 662.26 205.26 662.26 209.32 639.48 201.15 639.48 188.55 708.53 131.34 708.53 169.36 529.13 222.53 529.13"/><path class="c" d="M377.37,658.43h50.83l5.13-84.57h-48.56l-7.41,84.57Zm-58.12,26.2l15.79-135.33h18.91l2.14-20.17h112.78l-.85,20.17h19.96l-4.18,135.33h-21.47l-1.01,23.9h-124.25l2.54-23.9h-20.34Z"/><path class="c" d="M558.81,656.99h23.39l-1.72-83.14h-22.36l.69,83.14Zm59.79-127.86l.64,14.87h14.87l7.51,146.79h-16.1l.76,17.74h-126.31l3.98-179.4h114.65Z"/><polygon class="c" points="773.34 529.13 779.09 573.2 707.99 573.2 709.59 590.83 781.39 590.83 787.65 638.78 713.97 638.78 715.69 657.71 790.12 657.71 796.76 708.53 661.06 708.53 650.17 529.13 773.34 529.13"/><polygon class="c" points="887.72 657.71 884.28 638.78 803.97 638.78 788.7 529.13 916.85 529.13 926.19 573.2 848.7 573.2 851.68 590.83 929.93 590.83 954.87 708.53 813.69 708.53 806.61 657.71 887.72 657.71"/></g><g><polygon class="c" points="221.27 526.77 217.59 547.01 237.2 547.01 233.81 566.85 254.91 566.85 251.54 588.02 259.52 588.02 269 526.77 319.65 526.77 296.93 706.81 241.13 706.81 244.84 682.82 222.39 682.82 226.12 660.38 203.93 660.38 208 637.51 199.81 637.51 187.16 706.81 129.75 706.81 167.91 526.77 221.27 526.77"/><path class="c" d="M376.65,656.53h51.01l5.15-84.88h-48.73l-7.43,84.88Zm-58.33,26.29l15.84-135.81h18.97l2.15-20.24h113.18l-.85,20.24h20.03l-4.2,135.81h-21.55l-1.01,23.99h-124.69l2.54-23.99h-20.41Z"/><path class="c" d="M558.75,655.09h23.47l-1.72-83.44h-22.44l.69,83.44Zm60.01-128.32l.64,14.92h14.92l7.54,147.31h-16.16l.76,17.8h-126.76l4-180.04h115.06Z"/><polygon class="c" points="774.03 526.77 779.81 571 708.45 571 710.07 588.69 782.12 588.69 788.4 636.81 714.45 636.81 716.19 655.81 790.88 655.81 797.54 706.81 661.36 706.81 650.43 526.77 774.03 526.77"/><polygon class="c" points="888.83 655.81 885.37 636.81 804.78 636.81 789.46 526.77 918.06 526.77 927.44 571 849.67 571 852.66 588.69 931.18 588.69 956.22 706.81 814.53 706.81 807.43 655.81 888.83 655.81"/></g><g><polygon class="c" points="220 524.41 216.31 544.73 235.99 544.73 232.59 564.63 253.76 564.63 250.38 585.88 258.39 585.88 267.9 524.41 318.73 524.41 295.94 705.09 239.93 705.09 243.66 681.02 221.13 681.02 224.88 658.5 202.6 658.5 206.69 635.55 198.47 635.55 185.78 705.09 128.16 705.09 166.45 524.41 220 524.41"/><path class="c" d="M375.94,654.63h51.19l5.17-85.18h-48.9l-7.46,85.18Zm-58.53,26.38l15.9-136.29h19.04l2.15-20.31h113.58l-.86,20.31h20.1l-4.21,136.29h-21.62l-1.01,24.07h-125.14l2.55-24.07h-20.49Z"/><path class="c" d="M558.68,653.19h23.56l-1.73-83.73h-22.52l.7,83.73Zm60.22-128.77l.64,14.98h14.98l7.56,147.84h-16.21l.76,17.86h-127.21l4.01-180.68h115.47Z"/><polygon class="c" points="774.73 524.41 780.53 568.8 708.92 568.8 710.54 586.55 782.84 586.55 789.15 634.84 714.94 634.84 716.68 653.91 791.64 653.91 798.32 705.09 661.66 705.09 650.69 524.41 774.73 524.41"/><polygon class="c" points="889.94 653.91 886.46 634.84 805.59 634.84 790.21 524.41 919.27 524.41 928.68 568.8 850.63 568.8 853.64 586.55 932.44 586.55 957.56 705.09 815.37 705.09 808.24 653.91 889.94 653.91"/></g><g><polygon class="c" points="218.74 522.06 215.03 542.44 234.78 542.44 231.37 562.41 252.62 562.41 249.23 583.73 257.26 583.73 266.81 522.06 317.82 522.06 294.94 703.37 238.74 703.37 242.48 679.21 219.87 679.21 223.63 656.61 201.28 656.61 205.38 633.58 197.13 633.58 184.39 703.37 126.58 703.37 165 522.06 218.74 522.06"/><path class="c" d="M375.23,652.73h51.37l5.19-85.48h-49.07l-7.48,85.48Zm-58.74,26.48l15.95-136.77h19.11l2.16-20.38h113.98l-.86,20.38h20.17l-4.23,136.77h-21.7l-1.02,24.16h-125.58l2.56-24.16h-20.56Z"/><path class="c" d="M558.61,651.28h23.64l-1.74-84.03h-22.6l.7,84.03Zm60.43-129.23l.64,15.03h15.03l7.59,148.36h-16.27l.77,17.93h-127.66l4.03-181.32h115.87Z"/><polygon class="c" points="775.43 522.06 781.25 566.59 709.38 566.59 711.01 584.41 783.57 584.41 789.9 632.87 715.43 632.87 717.17 652.01 792.4 652.01 799.1 703.37 661.96 703.37 650.95 522.06 775.43 522.06"/><polygon class="c" points="891.04 652.01 887.56 632.87 806.4 632.87 790.96 522.06 920.48 522.06 929.92 566.59 851.6 566.59 854.61 584.41 933.7 584.41 958.91 703.37 816.21 703.37 809.06 652.01 891.04 652.01"/></g><g><polygon class="c" points="217.47 519.7 213.76 540.15 233.57 540.15 230.15 560.2 251.47 560.2 248.07 581.59 256.13 581.59 265.71 519.7 316.9 519.7 293.94 701.65 237.55 701.65 241.3 677.41 218.61 677.41 222.38 654.73 199.95 654.73 204.07 631.62 195.79 631.62 183.01 701.65 124.99 701.65 163.55 519.7 217.47 519.7"/><path class="c" d="M374.52,650.83h51.55l5.21-85.78h-49.25l-7.51,85.78Zm-58.95,26.57l16.01-137.26h19.18l2.17-20.45h114.39l-.86,20.45h20.24l-4.24,137.26h-21.78l-1.02,24.24h-126.02l2.57-24.24h-20.63Z"/><path class="c" d="M558.55,649.38h23.72l-1.74-84.32h-22.68l.7,84.32Zm60.65-129.68l.65,15.08h15.08l7.62,148.88h-16.33l.77,17.99h-128.11l4.04-181.95h116.28Z"/><polygon class="c" points="776.13 519.7 781.97 564.39 709.85 564.39 711.48 582.27 784.3 582.27 790.65 630.9 715.91 630.9 717.67 650.11 793.16 650.11 799.88 701.65 662.26 701.65 651.21 519.7 776.13 519.7"/><polygon class="c" points="892.15 650.11 888.65 630.9 807.2 630.9 791.72 519.7 921.69 519.7 931.16 564.39 852.57 564.39 855.59 582.27 934.95 582.27 960.25 701.65 817.06 701.65 809.88 650.11 892.15 650.11"/></g><g><polygon class="c" points="216.21 517.34 212.48 537.86 232.36 537.86 228.93 557.98 250.33 557.98 246.91 579.45 255 579.45 264.62 517.34 315.99 517.34 292.95 699.93 236.35 699.93 240.12 675.6 217.35 675.6 221.13 652.84 198.63 652.84 202.76 629.65 194.45 629.65 181.62 699.93 123.4 699.93 162.09 517.34 216.21 517.34"/><path class="c" d="M373.8,648.94h51.73l5.23-86.08h-49.42l-7.54,86.08Zm-59.15,26.66l16.07-137.74h19.24l2.18-20.53h114.79l-.86,20.53h20.31l-4.26,137.74h-21.85l-1.02,24.33h-126.46l2.58-24.33h-20.7Z"/><path class="c" d="M558.48,647.48h23.81l-1.75-84.62h-22.76l.7,84.62Zm60.86-130.14l.65,15.14h15.14l7.65,149.41h-16.39l.77,18.05h-128.56l4.05-182.59h116.69Z"/><polygon class="c" points="776.83 517.34 782.68 562.19 710.31 562.19 711.95 580.13 785.03 580.13 791.4 628.93 716.4 628.93 718.16 648.21 793.91 648.21 800.67 699.93 662.56 699.93 651.47 517.34 776.83 517.34"/><polygon class="c" points="893.25 648.21 889.74 628.93 808.01 628.93 792.47 517.34 922.9 517.34 932.41 562.19 853.54 562.19 856.57 580.13 936.21 580.13 961.6 699.93 817.9 699.93 810.69 648.21 893.25 648.21"/></g><g><polygon class="c" points="214.95 514.98 211.2 535.58 231.16 535.58 227.71 555.76 249.18 555.76 245.76 577.31 253.88 577.31 263.52 514.98 315.07 514.98 291.95 698.21 235.16 698.21 238.94 673.8 216.09 673.8 219.89 650.96 197.3 650.96 201.45 627.68 193.11 627.68 180.24 698.21 121.81 698.21 160.64 514.98 214.95 514.98"/><path class="c" d="M373.09,647.04h51.91l5.24-86.38h-49.59l-7.56,86.38Zm-59.36,26.76l16.12-138.22h19.31l2.18-20.6h115.19l-.87,20.6h20.38l-4.27,138.22h-21.93l-1.03,24.41h-126.91l2.59-24.41h-20.78Z"/><path class="c" d="M558.42,645.57h23.89l-1.76-84.92h-22.84l.71,84.92Zm61.07-130.6l.65,15.19h15.19l7.67,149.93h-16.44l.78,18.12h-129.01l4.07-183.23h117.1Z"/><polygon class="c" points="777.53 514.98 783.4 559.99 710.78 559.99 712.42 577.99 785.75 577.99 792.15 626.96 716.89 626.96 718.65 646.31 794.67 646.31 801.45 698.21 662.85 698.21 651.73 514.98 777.53 514.98"/><polygon class="c" points="894.36 646.31 890.84 626.96 808.82 626.96 793.22 514.98 924.11 514.98 933.65 559.99 854.5 559.99 857.55 577.99 937.47 577.99 962.94 698.21 818.74 698.21 811.51 646.31 894.36 646.31"/></g><g><polygon class="c" points="213.68 512.62 209.92 533.29 229.95 533.29 226.49 553.54 248.04 553.54 244.6 575.17 252.75 575.17 262.43 512.62 314.16 512.62 290.96 696.49 233.97 696.49 237.76 671.99 214.83 671.99 218.64 649.07 195.97 649.07 200.13 625.72 191.77 625.72 178.85 696.49 120.22 696.49 159.18 512.62 213.68 512.62"/><path class="c" d="M372.38,645.14h52.09l5.26-86.68h-49.77l-7.59,86.68Zm-59.57,26.85l16.18-138.7h19.38l2.19-20.67h115.59l-.87,20.67h20.46l-4.29,138.7h-22.01l-1.03,24.5h-127.35l2.6-24.5h-20.85Z"/><path class="c" d="M558.35,643.67h23.97l-1.76-85.21h-22.92l.71,85.21Zm61.28-131.05l.65,15.24h15.24l7.7,150.45h-16.5l.78,18.18h-129.46l4.08-183.87h117.51Z"/><polygon class="c" points="778.23 512.62 784.12 557.78 711.25 557.78 712.89 575.85 786.48 575.85 792.9 625 717.38 625 719.15 644.4 795.43 644.4 802.23 696.49 663.15 696.49 651.99 512.62 778.23 512.62"/><polygon class="c" points="895.47 644.4 891.93 625 809.63 625 793.98 512.62 925.32 512.62 934.89 557.78 855.47 557.78 858.52 575.85 938.72 575.85 964.29 696.49 819.58 696.49 812.33 644.4 895.47 644.4"/></g><g><polygon class="c" points="212.42 510.26 208.65 531 228.74 531 225.27 551.33 246.89 551.33 243.44 573.03 251.62 573.03 261.33 510.26 313.24 510.26 289.96 694.77 232.77 694.77 236.58 670.19 213.56 670.19 217.39 647.19 194.65 647.19 198.82 623.75 190.43 623.75 177.47 694.77 118.63 694.77 157.73 510.26 212.42 510.26"/><path class="c" d="M371.66,643.24h52.28l5.28-86.99h-49.94l-7.62,86.99Zm-59.78,26.95l16.24-139.19h19.45l2.2-20.74h115.99l-.87,20.74h20.53l-4.3,139.19h-22.08l-1.04,24.59h-127.79l2.61-24.59h-20.92Z"/><path class="c" d="M558.28,641.77h24.06l-1.77-85.51h-23l.71,85.51Zm61.5-131.51l.65,15.29h15.29l7.73,150.98h-16.56l.78,18.24h-129.91l4.1-184.51h117.92Z"/><polygon class="c" points="778.92 510.26 784.84 555.58 711.71 555.58 713.36 573.71 787.21 573.71 793.65 623.03 717.86 623.03 719.64 642.5 796.19 642.5 803.01 694.77 663.45 694.77 652.25 510.26 778.92 510.26"/><polygon class="c" points="896.57 642.5 893.03 623.03 810.43 623.03 794.73 510.26 926.53 510.26 936.14 555.58 856.44 555.58 859.5 573.71 939.98 573.71 965.64 694.77 820.43 694.77 813.15 642.5 896.57 642.5"/></g><g><polygon class="c" points="211.15 507.9 207.37 528.71 227.53 528.71 224.05 549.11 245.75 549.11 242.28 570.88 250.49 570.88 260.24 507.9 312.33 507.9 288.96 693.05 231.58 693.05 235.4 668.38 212.3 668.38 216.15 645.3 193.32 645.3 197.51 621.78 189.08 621.78 176.08 693.05 117.04 693.05 156.28 507.9 211.15 507.9"/><path class="c" d="M370.95,641.34h52.46l5.3-87.29h-50.11l-7.64,87.29Zm-59.98,27.04l16.29-139.67h19.51l2.21-20.81h116.4l-.88,20.81h20.6l-4.32,139.67h-22.16l-1.04,24.67h-128.24l2.62-24.67h-20.99Z"/><path class="c" d="M558.22,639.86h24.14l-1.77-85.81h-23.08l.71,85.81Zm61.71-131.96l.66,15.35h15.35l7.75,151.5h-16.61l.78,18.3h-130.36l4.11-185.15h118.33Z"/><polygon class="c" points="779.62 507.9 785.56 553.38 712.18 553.38 713.84 571.57 787.93 571.57 794.4 621.06 718.35 621.06 720.13 640.6 796.95 640.6 803.79 693.05 663.75 693.05 652.51 507.9 779.62 507.9"/><polygon class="c" points="897.68 640.6 894.12 621.06 811.24 621.06 795.48 507.9 927.74 507.9 937.38 553.38 857.4 553.38 860.48 571.57 941.24 571.57 966.98 693.05 821.27 693.05 813.96 640.6 897.68 640.6"/></g><g><polygon class="c" points="209.89 505.54 206.09 526.43 226.32 526.43 222.83 546.89 244.6 546.89 241.13 568.74 249.36 568.74 259.14 505.54 311.41 505.54 287.97 691.33 230.38 691.33 234.22 666.58 211.04 666.58 214.9 643.42 192 643.42 196.2 619.82 187.74 619.82 174.69 691.33 115.45 691.33 154.82 505.54 209.89 505.54"/><path class="c" d="M370.24,639.44h52.64l5.32-87.59h-50.29l-7.67,87.59Zm-60.19,27.13l16.35-140.15h19.58l2.21-20.89h116.8l-.88,20.89h20.67l-4.33,140.15h-22.24l-1.04,24.76h-128.68l2.63-24.76h-21.07Z"/><path class="c" d="M558.15,637.96h24.22l-1.78-86.1h-23.16l.71,86.1Zm61.92-132.42l.66,15.4h15.4l7.78,152.02h-16.67l.79,18.37h-130.81l4.12-185.79h118.73Z"/><polygon class="c" points="780.32 505.54 786.28 551.18 712.64 551.18 714.31 569.43 788.66 569.43 795.14 619.09 718.84 619.09 720.63 638.7 797.7 638.7 804.58 691.33 664.05 691.33 652.77 505.54 780.32 505.54"/><polygon class="c" points="898.79 638.7 895.21 619.09 812.05 619.09 796.24 505.54 928.95 505.54 938.62 551.18 858.37 551.18 861.46 569.43 942.49 569.43 968.33 691.33 822.11 691.33 814.78 638.7 898.79 638.7"/></g><g><polygon class="c" points="208.62 503.18 204.81 524.14 225.12 524.14 221.61 544.68 243.46 544.68 239.97 566.6 248.23 566.6 258.05 503.18 310.5 503.18 286.97 689.61 229.19 689.61 233.04 664.77 209.78 664.77 213.65 641.53 190.67 641.53 194.89 617.85 186.4 617.85 173.31 689.61 113.86 689.61 153.37 503.18 208.62 503.18"/><path class="c" d="M369.53,637.55h52.82l5.34-87.89h-50.46l-7.7,87.89Zm-60.4,27.23l16.4-140.63h19.65l2.22-20.96h117.2l-.88,20.96h20.74l-4.35,140.63h-22.31l-1.05,24.84h-129.12l2.63-24.84h-21.14Z"/><path class="c" d="M558.09,636.05h24.31l-1.79-86.4h-23.24l.72,86.4Zm62.14-132.87l.66,15.45h15.45l7.81,152.55h-16.73l.79,18.43h-131.26l4.14-186.43h119.14Z"/><polygon class="c" points="781.02 503.18 787 548.98 713.11 548.98 714.78 567.29 789.39 567.29 795.89 617.12 719.32 617.12 721.12 636.8 798.46 636.8 805.36 689.61 664.35 689.61 653.03 503.18 781.02 503.18"/><polygon class="c" points="899.89 636.8 896.31 617.12 812.86 617.12 796.99 503.18 930.16 503.18 939.87 548.98 859.34 548.98 862.44 567.29 943.75 567.29 969.67 689.61 822.95 689.61 815.6 636.8 899.89 636.8"/></g><g><polygon class="c" points="207.36 500.82 203.54 521.85 223.91 521.85 220.39 542.46 242.31 542.46 238.81 564.46 247.1 564.46 256.96 500.82 309.58 500.82 285.98 687.89 228 687.89 231.85 662.97 208.52 662.97 212.4 639.65 189.34 639.65 193.58 615.89 185.06 615.89 171.92 687.89 112.27 687.89 151.92 500.82 207.36 500.82"/><path class="c" d="M368.81,635.65h53l5.35-88.19h-50.63l-7.72,88.19Zm-60.6,27.32l16.46-141.11h19.72l2.23-21.03h117.6l-.89,21.03h20.81l-4.36,141.11h-22.39l-1.05,24.93h-129.56l2.64-24.93h-21.21Z"/><path class="c" d="M558.02,634.15h24.39l-1.79-86.69h-23.32l.72,86.69Zm62.35-133.33l.66,15.51h15.51l7.83,153.07h-16.79l.79,18.49h-131.71l4.15-187.07h119.55Z"/><polygon class="c" points="781.72 500.82 787.72 546.77 713.57 546.77 715.25 565.15 790.12 565.15 796.64 615.15 719.81 615.15 721.61 634.9 799.22 634.9 806.14 687.89 664.64 687.89 653.29 500.82 781.72 500.82"/><polygon class="c" points="901 634.9 897.4 615.15 813.66 615.15 797.74 500.82 931.37 500.82 941.11 546.77 860.31 546.77 863.41 565.15 945.01 565.15 971.02 687.89 823.79 687.89 816.41 634.9 901 634.9"/></g><g><polygon class="c" points="206.09 498.46 202.26 519.56 222.7 519.56 219.17 540.24 241.17 540.24 237.66 562.32 245.98 562.32 255.86 498.46 308.67 498.46 284.98 686.17 226.8 686.17 230.67 661.16 207.26 661.16 211.16 637.76 188.02 637.76 192.27 613.92 183.72 613.92 170.54 686.17 110.68 686.17 150.46 498.46 206.09 498.46"/><path class="c" d="M368.1,633.75h53.18l5.37-88.49h-50.81l-7.75,88.49Zm-60.81,27.41l16.52-141.6h19.78l2.24-21.1h118l-.89,21.1h20.88l-4.38,141.6h-22.47l-1.05,25.01h-130.01l2.65-25.01h-21.28Z"/><path class="c" d="M557.95,632.25h24.47l-1.8-86.99h-23.4l.72,86.99Zm62.56-133.78l.67,15.56h15.56l7.86,153.59h-16.84l.79,18.56h-132.16l4.17-187.71h119.96Z"/><polygon class="c" points="782.42 498.46 788.44 544.57 714.04 544.57 715.72 563.01 790.84 563.01 797.39 613.18 720.3 613.18 722.1 633 799.98 633 806.92 686.17 664.94 686.17 653.55 498.46 782.42 498.46"/><polygon class="c" points="902.1 633 898.5 613.18 814.47 613.18 798.5 498.46 932.58 498.46 942.35 544.57 861.27 544.57 864.39 563.01 946.26 563.01 972.36 686.17 824.64 686.17 817.23 633 902.1 633"/></g><g><polygon class="c" points="204.83 496.1 200.98 517.28 221.49 517.28 217.95 538.03 240.02 538.03 236.5 560.17 244.85 560.17 254.77 496.1 307.75 496.1 283.99 684.45 225.61 684.45 229.49 659.35 206 659.35 209.91 635.88 186.69 635.88 190.95 611.95 182.38 611.95 169.15 684.45 109.09 684.45 149.01 496.1 204.83 496.1"/><path class="c" d="M367.39,631.85h53.36l5.39-88.79h-50.98l-7.77,88.79Zm-61.02,27.51l16.57-142.08h19.85l2.25-21.17h118.41l-.89,21.17h20.95l-4.39,142.08h-22.54l-1.06,25.1h-130.45l2.66-25.1h-21.36Z"/><path class="c" d="M557.89,630.34h24.56l-1.8-87.29h-23.48l.72,87.29Zm62.78-134.24l.67,15.61h15.61l7.89,154.11h-16.9l.8,18.62h-132.61l4.18-188.35h120.37Z"/><polygon class="c" points="783.12 496.1 789.16 542.37 714.5 542.37 716.19 560.87 791.57 560.87 798.14 611.22 720.78 611.22 722.6 631.1 800.74 631.1 807.7 684.45 665.24 684.45 653.81 496.1 783.12 496.1"/><polygon class="c" points="903.21 631.1 899.59 611.22 815.28 611.22 799.25 496.1 933.79 496.1 943.6 542.37 862.24 542.37 865.37 560.87 947.52 560.87 973.71 684.45 825.48 684.45 818.05 631.1 903.21 631.1"/></g><g><polygon class="c" points="203.57 493.74 199.7 514.99 220.29 514.99 216.73 535.81 238.88 535.81 235.34 558.03 243.72 558.03 253.67 493.74 306.84 493.74 282.99 682.73 224.41 682.73 228.31 657.55 204.74 657.55 208.66 633.99 185.37 633.99 189.64 609.99 181.04 609.99 167.77 682.73 107.5 682.73 147.55 493.74 203.57 493.74"/><path class="c" d="M366.68,629.95h53.54l5.41-89.09h-51.15l-7.8,89.09Zm-61.22,27.6l16.63-142.56h19.92l2.25-21.24h118.81l-.89,21.24h21.02l-4.41,142.56h-22.62l-1.06,25.18h-130.89l2.67-25.18h-21.43Z"/><path class="c" d="M557.82,628.44h24.64l-1.81-87.58h-23.56l.73,87.58Zm62.99-134.7l.67,15.67h15.67l7.91,154.64h-16.96l.8,18.68h-133.06l4.2-188.99h120.78Z"/><polygon class="c" points="783.81 493.74 789.87 540.17 714.97 540.17 716.66 558.74 792.3 558.74 798.89 609.25 721.27 609.25 723.09 629.2 801.5 629.2 808.49 682.73 665.54 682.73 654.07 493.74 783.81 493.74"/><polygon class="c" points="904.32 629.2 900.68 609.25 816.09 609.25 800 493.74 935 493.74 944.84 540.17 863.21 540.17 866.35 558.74 948.78 558.74 975.05 682.73 826.32 682.73 818.87 629.2 904.32 629.2"/></g><g><polygon class="c" points="202.3 491.38 198.43 512.7 219.08 512.7 215.51 533.59 237.73 533.59 234.19 555.89 242.59 555.89 252.58 491.38 305.92 491.38 281.99 681.01 223.22 681.01 227.13 655.74 203.48 655.74 207.42 632.11 184.04 632.11 188.33 608.02 179.7 608.02 166.38 681.01 105.91 681.01 146.1 491.38 202.3 491.38"/><path class="c" d="M365.96,628.05h53.72l5.43-89.4h-51.32l-7.83,89.4Zm-61.43,27.69l16.69-143.04h19.98l2.26-21.32h119.21l-.9,21.32h21.1l-4.42,143.04h-22.7l-1.06,25.27h-131.34l2.68-25.27h-21.5Z"/><path class="c" d="M557.75,626.54h24.72l-1.82-87.88h-23.64l.73,87.88Zm63.2-135.15l.67,15.72h15.72l7.94,155.16h-17.02l.8,18.75h-133.51l4.21-189.63h121.19Z"/><polygon class="c" points="784.51 491.38 790.59 537.96 715.44 537.96 717.14 556.6 793.03 556.6 799.64 607.28 721.76 607.28 723.58 627.29 802.25 627.29 809.27 681.01 665.84 681.01 654.33 491.38 784.51 491.38"/><polygon class="c" points="905.42 627.29 901.78 607.28 816.9 607.28 800.76 491.38 936.21 491.38 946.08 537.96 864.17 537.96 867.32 556.6 950.03 556.6 976.4 681.01 827.16 681.01 819.68 627.29 905.42 627.29"/></g><g><polygon class="c" points="201.04 489.03 197.15 510.41 217.87 510.41 214.29 531.38 236.59 531.38 233.03 553.75 241.46 553.75 251.48 489.03 305.01 489.03 281 679.29 222.03 679.29 225.95 653.94 202.22 653.94 206.17 630.22 182.71 630.22 187.02 606.06 178.36 606.06 165 679.29 104.32 679.29 144.65 489.03 201.04 489.03"/><path class="c" d="M365.25,626.15h53.91l5.45-89.7h-51.5l-7.85,89.7Zm-61.64,27.79l16.74-143.53h20.05l2.27-21.39h119.61l-.9,21.39h21.17l-4.44,143.53h-22.77l-1.07,25.35h-131.78l2.69-25.35h-21.57Z"/><path class="c" d="M557.69,624.63h24.81l-1.82-88.18h-23.72l.73,88.18Zm63.42-135.61l.68,15.77h15.77l7.97,155.68h-17.07l.81,18.81h-133.96l4.22-190.27h121.59Z"/><polygon class="c" points="785.21 489.03 791.31 535.76 715.9 535.76 717.61 554.46 793.75 554.46 800.39 605.31 722.24 605.31 724.08 625.39 803.01 625.39 810.05 679.29 666.14 679.29 654.58 489.03 785.21 489.03"/><polygon class="c" points="906.53 625.39 902.87 605.31 817.7 605.31 801.51 489.03 937.42 489.03 947.33 535.76 865.14 535.76 868.3 554.46 951.29 554.46 977.74 679.29 828.01 679.29 820.5 625.39 906.53 625.39"/></g><g><polygon class="c" points="199.77 486.67 195.87 508.13 216.66 508.13 213.07 529.16 235.44 529.16 231.87 551.61 240.33 551.61 250.39 486.67 304.09 486.67 280 677.57 220.83 677.57 224.77 652.13 200.96 652.13 204.92 628.34 181.39 628.34 185.71 604.09 177.02 604.09 163.61 677.57 102.73 677.57 143.19 486.67 199.77 486.67"/><path class="c" d="M364.54,624.26h54.09l5.46-90h-51.67l-7.88,90Zm-61.85,27.88l16.8-144.01h20.12l2.28-21.46h120.01l-.9,21.46h21.24l-4.45,144.01h-22.85l-1.07,25.44h-132.22l2.7-25.44h-21.65Z"/><path class="c" d="M557.62,622.73h24.89l-1.83-88.47h-23.8l.73,88.47Zm63.63-136.06l.68,15.82h15.82l7.99,156.21h-17.13l.81,18.87h-134.41l4.24-190.91h122Z"/><polygon class="c" points="785.91 486.67 792.03 533.56 716.37 533.56 718.08 552.32 794.48 552.32 801.14 603.34 722.73 603.34 724.57 623.49 803.77 623.49 810.83 677.57 666.43 677.57 654.84 486.67 785.91 486.67"/><polygon class="c" points="907.63 623.49 903.96 603.34 818.51 603.34 802.26 486.67 938.63 486.67 948.57 533.56 866.11 533.56 869.28 552.32 952.55 552.32 979.09 677.57 828.85 677.57 821.32 623.49 907.63 623.49"/></g><g><polygon class="c" points="198.51 484.31 194.59 505.84 215.45 505.84 211.85 526.94 234.3 526.94 230.71 549.47 239.2 549.47 249.29 484.31 303.18 484.31 279.01 675.85 219.64 675.85 223.59 650.33 199.7 650.33 203.67 626.45 180.06 626.45 184.4 602.12 175.68 602.12 162.22 675.85 101.14 675.85 141.74 484.31 198.51 484.31"/><path class="c" d="M363.83,622.36h54.27l5.48-90.3h-51.84l-7.91,90.3Zm-62.05,27.97l16.85-144.49h20.19l2.28-21.53h120.41l-.91,21.53h21.31l-4.47,144.49h-22.93l-1.07,25.52h-132.66l2.71-25.52h-21.72Z"/><path class="c" d="M557.56,620.83h24.97l-1.83-88.77h-23.87l.74,88.77Zm63.84-136.52l.68,15.88h15.88l8.02,156.73h-17.19l.81,18.94h-134.86l4.25-191.54h122.41Z"/><polygon class="c" points="786.61 484.31 792.75 531.36 716.83 531.36 718.55 550.18 795.21 550.18 801.89 601.37 723.22 601.37 725.06 621.59 804.53 621.59 811.61 675.85 666.73 675.85 655.1 484.31 786.61 484.31"/><polygon class="c" points="908.74 621.59 905.06 601.37 819.32 601.37 803.02 484.31 939.84 484.31 949.81 531.36 867.08 531.36 870.26 550.18 953.8 550.18 980.44 675.85 829.69 675.85 822.13 621.59 908.74 621.59"/></g><g><polygon class="c" points="197.24 481.95 193.32 503.55 214.25 503.55 210.63 524.72 233.16 524.72 229.56 547.32 238.07 547.32 248.2 481.95 302.26 481.95 278.01 674.13 218.44 674.13 222.41 648.52 198.44 648.52 202.43 624.57 178.74 624.57 183.08 600.16 174.34 600.16 160.84 674.13 99.56 674.13 140.28 481.95 197.24 481.95"/><path class="c" d="M363.11,620.46h54.45l5.5-90.6h-52.02l-7.93,90.6Zm-62.26,28.07l16.91-144.97h20.25l2.29-21.6h120.82l-.91,21.6h21.38l-4.48,144.97h-23l-1.08,25.61h-133.11l2.72-25.61h-21.79Z"/><path class="c" d="M557.49,618.92h25.06l-1.84-89.07h-23.95l.74,89.07Zm64.05-136.97l.68,15.93h15.93l8.05,157.25h-17.25l.81,19h-135.31l4.27-192.18h122.82Z"/><polygon class="c" points="787.31 481.95 793.47 529.16 717.3 529.16 719.02 548.04 795.93 548.04 802.64 599.4 723.71 599.4 725.56 619.69 805.29 619.69 812.4 674.13 667.03 674.13 655.36 481.95 787.31 481.95"/><polygon class="c" points="909.85 619.69 906.15 599.4 820.13 599.4 803.77 481.95 941.05 481.95 951.06 529.16 868.04 529.16 871.23 548.04 955.06 548.04 981.78 674.13 830.53 674.13 822.95 619.69 909.85 619.69"/></g><g><polygon class="c" points="195.98 479.59 192.04 501.26 213.04 501.26 209.41 522.51 232.01 522.51 228.4 545.18 236.95 545.18 247.1 479.59 301.35 479.59 277.02 672.41 217.25 672.41 221.23 646.72 197.18 646.72 201.18 622.68 177.41 622.68 181.77 598.19 173 598.19 159.45 672.41 97.97 672.41 138.83 479.59 195.98 479.59"/><path class="c" d="M362.4,618.56h54.63l5.52-90.9h-52.19l-7.96,90.9Zm-62.47,28.16l16.97-145.45h20.32l2.3-21.68h121.22l-.91,21.68h21.45l-4.5,145.45h-23.08l-1.08,25.69h-133.55l2.72-25.69h-21.86Z"/><path class="c" d="M557.42,617.02h25.14l-1.85-89.36h-24.03l.74,89.36Zm64.27-137.43l.68,15.98h15.98l8.07,157.78h-17.3l.82,19.06h-135.76l4.28-192.82h123.23Z"/><polygon class="c" points="788 479.59 794.19 526.95 717.76 526.95 719.49 545.9 796.66 545.9 803.39 597.44 724.19 597.44 726.05 617.79 806.05 617.79 813.18 672.41 667.33 672.41 655.62 479.59 788 479.59"/><polygon class="c" points="910.95 617.79 907.25 597.44 820.93 597.44 804.52 479.59 942.26 479.59 952.3 526.95 869.01 526.95 872.21 545.9 956.31 545.9 983.13 672.41 831.37 672.41 823.77 617.79 910.95 617.79"/></g><g><path class="c" d="M194.71,477.23l-3.95,21.75h21.07l-3.64,21.31h22.68l-3.62,22.75h8.57l10.19-65.81h54.43l-24.41,193.46h-59.96l3.99-25.78h-24.13l4.01-24.12h-23.85l4.38-24.57h-8.81l-13.59,74.47h-61.69l41-193.46h57.34Z"/><path class="c" d="M361.69,616.66h54.81l5.54-91.2h-52.36l-7.99,91.2Zm-62.67,28.25l17.02-145.94h20.39l2.31-21.75h121.62l-.92,21.75h21.52l-4.51,145.94h-23.16l-1.09,25.78h-133.99l2.73-25.78h-21.94Z"/><path class="c" d="M557.36,615.11h25.22l-1.85-89.66h-24.11l.74,89.66Zm64.48-137.89l.69,16.04h16.04l8.1,158.3h-17.36l.82,19.13h-136.21l4.29-193.46h123.64Z"/><path class="c" d="M788.7,477.23l6.2,47.52h-76.68l1.73,19.01h77.43l6.75,51.71h-79.46l1.86,20.42h80.26l7.15,54.8h-146.33l-11.74-193.46h132.82Z"/><path class="c" d="M912.06,615.89l-3.72-20.42h-86.6l-16.47-118.24h138.2l10.07,47.52h-83.57l3.21,19.01h84.38l26.9,126.93h-152.25l-7.63-54.8h87.47Z"/></g></g><g><path class="d" d="M194.71,473.55l-3.95,21.75h21.07l-3.64,21.31h22.68l-3.62,22.75h8.57l10.19-65.81h54.43l-24.41,193.46h-59.96l3.99-25.78h-24.13l4.01-24.12h-23.85l4.38-24.57h-8.81l-13.59,74.47h-61.69l41-193.46h57.34Z"/><path class="d" d="M299.01,641.24l17.02-145.94h20.39l2.31-21.75h121.62l-.92,21.75h21.52l-4.51,145.94h-23.16l-1.09,25.78h-133.99l2.73-25.78h-21.94Zm62.67-28.25h54.81l5.54-91.2h-52.36l-7.99,91.2Z"/><path class="d" d="M621.84,473.55l.69,16.04h16.04l8.1,158.3h-17.36l.82,19.13h-136.21l4.29-193.46h123.64Zm-64.48,137.89h25.22l-1.85-89.66h-24.11l.74,89.66Z"/><path class="d" d="M788.7,473.55l6.2,47.52h-76.68l1.73,19.01h77.43l6.75,51.71h-79.46l1.86,20.42h80.26l7.15,54.8h-146.33l-11.74-193.46h132.82Z"/><path class="d" d="M912.06,612.21l-3.72-20.42h-86.6l-16.47-118.24h138.2l10.07,47.52h-83.57l3.21,19.01h84.38l26.9,126.93h-152.25l-7.63-54.8h87.47Z"/></g><g><path class="b" d="M246.01,469.88l-.68,4.39h52.08l-23.86,189.08h2.47l24.42-193.47h-54.43Zm-18.76,65.81l3.62-22.75h-22.67l3.64-21.31h-21.06l3.95-21.74h-57.33l-.93,4.39h55.25l-3.96,21.74h21.06l-3.64,21.31h22.69l-3.63,22.75h8.57l.68-4.39h-6.22Zm-58.61,57.57l-12.79,70.09h2.22l12.79-70.09h-2.22Z"/><path class="b" d="M316.04,491.62l-.51,4.39h17.88l.46-4.39h-17.83Zm45.65,117.69l7.6-86.82h-2.64l-7.98,91.21h54.81l.26-4.39h-52.05Zm97.75-117.69l.92-21.74h-121.62l-.46,4.39h119.06l-.92,21.74h21.53l-4.38,141.55h2.88l4.51-145.94h-21.52Z"/><path class="b" d="M638.57,485.91h-16.04l-.68-16.03h-123.64l-.1,4.39h120.72l.69,16.03h16.03l7.88,153.92h3.24l-8.09-158.31Zm-59.1,121.85h-22.11l-.7-85.27h-3.06l.75,89.65h25.21l-.09-4.39Z"/><path class="b" d="M788.7,469.88h-132.81l.26,4.39h129.54l5.63,43.14h3.59l-6.21-47.52Zm8.68,66.53h-77.42l-1.34-14.61h-3.42l1.73,19h77.43l6.18,47.32h3.59l-6.76-51.71Zm9.42,72.14h-80.27l-1.46-16.04h-3.42l1.87,20.43h80.25l6.58,50.42h3.61l-7.15-54.8Z"/><path class="b" d="M957.58,536.4h-84.38l-2.47-14.61h-3.76l3.21,19h84.38l25.97,122.55h3.95l-26.89-126.94Zm-14.1-66.53h-138.2l.61,4.39h134.56l9.15,43.14h3.95l-10.07-47.52Zm-35.24,138.66h-83.66l.61,4.39h83.85l-.8-4.39Z"/></g><g><path class="d" d="M336.26,436.95h-5.6l.92-5.84,.91-5.79,.9-5.74,.89-5.69h-22l-.99,5.69-1,5.74-1,5.79-1.01,5.84h-11.19l1.06-5.84,1.05-5.79,1.04-5.74,1.03-5.69,1.03-5.64,1.02-5.59,1.01-5.55,1-5.5,.99-5.45h5.38l.96-5.41h5.36l.93-5.36h21.36l-.84,5.36h5.36l-.82,5.41h5.38l-.81,5.45-.82,5.5-.82,5.55-.83,5.59-.84,5.64-.84,5.69-.85,5.74-.86,5.79-.87,5.84h-5.6Zm-5.68-34.3h5.45l.87-5.55,.86-5.5h-5.41l.88-5.45h-10.77l-.92,5.45h-5.41l-.95,5.5-.96,5.55h16.36Z"/><path class="d" d="M407.91,436.95h-27.99l.7-5.84,.69-5.79,.69-5.74,.68-5.69,.68-5.64,.67-5.59,.66-5.55,.66-5.5,.65-5.45,.65-5.41,.64-5.36h10.68l-.6,5.36-.6,5.41-.61,5.45-.61,5.5-.62,5.55-.62,5.59-.63,5.64-.63,5.69-.64,5.74h22.19l-.55,5.79-.55,5.84h-5.6Z"/><path class="d" d="M479.55,436.95h-27.99l.39-5.84,.38-5.79,.38-5.74,.38-5.69,.37-5.64,.37-5.59,.37-5.55,.36-5.5,.36-5.45,.36-5.41,.35-5.36h10.68l-.31,5.36-.31,5.41-.32,5.45-.32,5.5-.32,5.55-.32,5.59-.33,5.64-.33,5.69-.33,5.74h22.19l-.24,5.79-.24,5.84h-5.6Z"/><path class="d" d="M600.45,436.95h-5.6l-.24-5.84-.24-5.79-.24-5.74-.23-5.69-.23-5.64-.23-5.59-.23-5.55-.23-5.5-.22-5.45h-16.15l-.15-5.41-.15-5.36h42.71l.33,5.36,.34,5.41h-16.15l.27,5.45,.27,5.5,.27,5.55,.28,5.59,.28,5.64,.28,5.69,.28,5.74,.29,5.79,.29,5.84h-5.6Z"/><path class="d" d="M700.08,436.95h-5.6l-.68-5.84-.67-5.79-.66-5.74-.66-5.69-.65-5.64h-21.91l.56,5.64,.56,5.69,.57,5.74,.57,5.79,.58,5.84h-11.19l-.53-5.84-.52-5.79-.52-5.74-.51-5.69-.51-5.64-.51-5.59-.5-5.55-.5-5.5-.49-5.45-.49-5.41-.49-5.36h10.68l.53,5.36,.53,5.41,.54,5.45,.54,5.5h21.72l-.64-5.5-.63-5.45-.63-5.41-.62-5.36h10.68l.66,5.36,.67,5.41,.68,5.45,.68,5.5,.69,5.55,.69,5.59,.7,5.64,.71,5.69,.71,5.74,.72,5.79,.72,5.84h-5.6Z"/><path class="d" d="M777.32,436.95h-27.99l-.92-5.84-.91-5.79-.9-5.74-.89-5.69-.88-5.64-.88-5.59-.87-5.55-.86-5.5-.85-5.45-.85-5.41-.84-5.36h32.04l.97,5.36,.98,5.41h-21.54l.9,5.45,.91,5.5h21.72l1.01,5.55,1.02,5.59h-21.91l.93,5.64,.94,5.69,.95,5.74h22.19l1.05,5.79,1.06,5.84h-5.6Z"/></g><path class="g" d="M1080,830.97v249.03H0v-113.06c63.15-30.16,135.61-43.5,203.82-45.63,132.46-4.14,263.64,27.08,396.13,30.24,167,4,334.15-39.37,480.05-120.58Z"/><path class="g" d="M1080,0V64.93c-83.81,41.43-177.46,67.24-269.73,80.51-194.8,28.01-393.61,11.1-589.19,33.05-74.25,8.34-149.69,23.6-221.08,48.01V0H1080Z"/></svg>